<?xml version="1.0" encoding="UTF-8"?>
<svg width="481px" height="387px" viewBox="0 0 481 387" version="1.1" xmlns="http://www.w3.org/2000/svg" xmlns:xlink="http://www.w3.org/1999/xlink">
    <!-- Generator: Sketch 61.2 (89653) - https://sketch.com -->
    <title>9</title>
    <desc>Created with Sketch.</desc>
    <defs>
        <path d="M0.131,33.505 C0.131,33.505 6.028,25.578 6.028,17.003 C6.028,8.428 0.459,1.527 0.459,1.527 L0.459,0.916 L78.275,0.916 C87.735,0.916 95.476,7.82 95.476,16.258 L95.476,18.969 C95.476,27.408 87.735,34.312 78.275,34.312 L0.459,34.312 L0.131,34.108 L0.131,33.505 L0.131,33.505 Z" id="path-1"></path>
        <polygon id="path-3" points="0.0979916608 0.399 24.559637 0.399 24.559637 15.8732595 0.0979916608 15.8732595"></polygon>
        <polygon id="path-5" points="0.073981334 0.399 24.5357649 0.399 24.5357649 15.8732595 0.073981334 15.8732595"></polygon>
        <polygon id="path-7" points="0.397991661 0.399 24.8597649 0.399 24.8597649 15.8732595 0.397991661 15.8732595"></polygon>
    </defs>
    <g id="Page-1" stroke="none" stroke-width="1" fill="none" fill-rule="evenodd">
        <g id="9">
            <path d="M315.215,348.635 C323.013,345.737 458.855,348.635 458.855,348.635 C465.828,348.635 472.232,356.434 472.232,363.408 C472.232,370.382 465.828,378.18 458.855,378.18 C458.855,378.18 326.034,383.761 315.147,378.34 C317.006,366.489 316.737,355.753 315.215,348.635" id="Fill-1" fill="#C7E6F0"></path>
            <polygon id="Fill-2" fill="#95BED7" points="316.017 352.037 469.268 352.037 469.268 351.339 316.017 351.339"></polygon>
            <path d="M316.259,355.753 L471.807,355.753 L471.807,356.451 L316.421,356.451 C316.378,356.212 316.32,355.982 316.259,355.753" id="Fill-3" fill="#95BED7"></path>
            <polygon id="Fill-4" fill="#95BED7" points="316.601 362.727 473.762 362.727 473.762 362.03 316.601 362.03"></polygon>
            <polygon id="Fill-5" fill="#95BED7" points="316.601 365.864 473.762 365.864 473.762 365.166 316.601 365.166"></polygon>
            <path d="M316.161,370.222 L472.27,370.222 L472.27,370.919 L316.061,370.919 C316.104,370.687 316.138,370.456 316.161,370.222" id="Fill-6" fill="#95BED7"></path>
            <path d="M315.395,376.324 L468.158,376.324 C468.003,376.549 467.859,376.783 467.723,377.021 L315.255,377.021 C315.313,376.79 315.357,376.557 315.395,376.324" id="Fill-7" fill="#95BED7"></path>
            <path d="M458.855,378.18 C465.828,378.18 472.232,370.382 472.232,363.408 C472.232,356.434 465.828,348.635 458.855,348.635 C458.855,348.635 323.551,345.749 315.267,348.619 C314.918,346.801 314.645,345.737 314.645,345.737 L458.046,345.737 C467.766,345.737 475.718,353.689 475.718,363.408 C475.718,373.127 467.766,381.08 458.046,381.08 C458.046,381.08 321.618,384.226 314.645,381.08 C314.645,380.812 314.867,379.834 315.166,378.349 C326.184,383.754 458.855,378.18 458.855,378.18" id="Fill-8" fill="#1E4773"></path>
            <path d="M341.139,346.288 L463.189,346.288 C468.419,346.288 472.699,342.008 472.699,336.778 L472.699,315.568 C472.699,310.337 468.419,306.058 463.189,306.058 L341.139,306.058 C335.907,306.058 331.628,310.337 331.628,315.568 L331.628,336.778 C331.628,342.008 335.907,346.288 341.139,346.288" id="Fill-9" fill="#13374D"></path>
            <path d="M451.895,306.058 C459.622,326.173 451.036,346.288 451.036,346.288 L433.336,346.288 C433.336,346.288 439.809,323.299 432.279,306.058 C440.997,306.058 446.149,306.058 451.895,306.058" id="Fill-10" fill="#081923"></path>
            <path d="M369.867,306.058 C377.595,326.173 369.009,346.288 369.009,346.288 L351.31,346.288 C351.31,346.288 357.781,323.299 350.253,306.058 C358.971,306.058 364.122,306.058 369.867,306.058" id="Fill-11" fill="#21837F"></path>
            <path d="M348.131,304.505 C348.131,304.505 354.028,296.578 354.028,288.003 C354.028,279.428 348.459,272.527 348.459,272.527 L348.459,271.916 L426.275,271.916 C435.735,271.916 443.476,278.82 443.476,287.258 L443.476,289.969 C443.476,298.408 435.735,305.312 426.275,305.312 L348.459,305.312 L348.131,305.108 L348.131,304.505" id="Fill-12" fill="#FFFFFE"></path>
            <g id="Group-21" transform="translate(348.000000, 271.000000)">
                <mask id="mask-2" fill="white">
                    <use xlink:href="#path-1"></use>
                </mask>
                <g id="Clip-14"></g>
                <polygon id="Fill-13" fill="#5BBDB7" mask="url(#mask-2)" points="0.131 5.165 74.018 5.165 74.018 4.467 0.131 4.467"></polygon>
                <path d="M-78.991,8.881 L76.557,8.881 L76.557,9.579 L-78.829,9.579 C-78.872,9.34 -78.93,9.11 -78.991,8.881" id="Fill-15" fill="#5BBDB7" mask="url(#mask-2)"></path>
                <polygon id="Fill-16" fill="#5BBDB7" mask="url(#mask-2)" points="0.131 15.854 78.512 15.854 78.512 15.157 0.131 15.157"></polygon>
                <polygon id="Fill-17" fill="#5BBDB7" mask="url(#mask-2)" points="0.131 18.992 78.512 18.992 78.512 18.294 0.131 18.294"></polygon>
                <polygon id="Fill-18" fill="#5BBDB7" mask="url(#mask-2)" points="0.131 22.129 73.16 22.129 73.16 21.432 0.131 21.432"></polygon>
                <path d="M-79.848,25.846 L75.699,25.846 L75.699,26.543 L-79.686,26.543 C-79.729,26.305 -79.787,26.075 -79.848,25.846" id="Fill-19" fill="#5BBDB7" mask="url(#mask-2)"></path>
                <polygon id="Fill-20" fill="#5BBDB7" mask="url(#mask-2)" points="0.131 30.853 77.655 30.853 77.655 30.156 0.131 30.156"></polygon>
            </g>
            <path d="M381.178,272.249 L347.64,272.249 L347.64,269.599 L406.124,269.599 L406.124,272.249 L396.523,272.249 C397.528,280.387 399.871,289.061 402.477,296.691 C402.606,297.581 402.756,298.466 402.849,299.363 C402.904,299.903 402.938,300.441 402.966,300.98 C401.634,302.003 400.473,303.15 399.477,304.39 L406.124,304.39 L406.124,307.041 L347.64,307.041 L347.64,304.39 L382.129,304.39 C386.751,304.39 391.037,301.789 393.068,297.589 C394.705,294.205 395.548,290.427 395.411,286.818 C395.331,284.692 394.904,282.721 394.195,280.918 C392.105,275.597 386.84,272.249 381.178,272.249" id="Fill-22" fill="#E98333"></path>
            <path d="M398.261,289.839 L398.261,286.8 C398.261,277.339 390.52,269.599 381.06,269.599 L463.626,269.599 C473.087,269.599 480.827,277.339 480.827,286.8 L480.827,289.839 C480.827,299.3 473.087,307.041 463.626,307.041 L381.06,307.041 C390.52,307.041 398.261,299.3 398.261,289.839" id="Fill-23" fill="#5CAFCB"></path>
            <polygon id="Fill-24" fill="#BBE1E7" points="456.663 307.041 460.35 307.041 460.35 269.599 456.663 269.599"></polygon>
            <polygon id="Fill-25" fill="#BBE1E7" points="451.953 307.041 453.797 307.041 453.797 269.599 451.953 269.599"></polygon>
            <path d="M325.677596,272.46 C325.677596,272.46 325.114,211.803 366.156,194.753 C418.957,250.067 364.417,301.848 364.417,301.848 L325.677596,272.46" id="Fill-26" fill="#1A8067"></path>
            <path d="M366.156,194.753 C366.34,194.946 366.518,195.138 366.698,195.331 L349.487,264.7 L389.155,244.369 C389.169,244.866 389.176,245.36 389.178,245.853 L349.062,266.414 L344.095,286.431 L342.942,285.556 L352.842,245.652 L335.445,226.548 C335.643,226.11 335.844,225.672 336.051,225.236 L353.228,244.097 L365.388,195.09 C365.645,194.979 365.896,194.861 366.156,194.753" id="Fill-27" fill="#FFFFFE"></path>
            <path d="M387.973,229.848 C398.945,224.803 411.258,221.942 423.993,224.129 C441.065,272.387 390.138,299.607 390.138,299.607 L337.486,304.712 L339.533,293.264 C344.491,265.543 362.388,241.613 387.973,229.848" id="Fill-28" fill="#1BAE90"></path>
            <path d="M378.085,235.149 L382.625,261.586 L422.998,223.979 C423.329,224.029 423.66,224.073 423.993,224.129 C424.06,224.32 424.117,224.506 424.182,224.696 L402.559,244.837 L427.358,247.299 C427.34,247.536 427.317,247.768 427.296,248.003 L427.235,248.624 L401.261,246.046 L365.227,279.614 L408.612,285.322 C408.212,285.724 407.814,286.122 407.416,286.508 L363.963,280.791 L338.375,304.625 L337.486,304.712 L337.717,303.418 L381.46,262.671 L376.862,235.906 C377.268,235.651 377.675,235.399 378.085,235.149" id="Fill-29" fill="#1F847F"></path>
            <path d="M351.057,292.729 C351.057,292.729 399.474,278.412 420.206,305.246 C395.925,370.091 311.725,343.784 311.725,343.784 L351.057,292.729" id="Fill-30" fill="#5BBBA4"></path>
            <path d="M420.206,305.247 C420.112,305.496 420.015,305.741 419.92,305.988 L353.05,320.273 L381.846,343.856 C381.357,344.034 380.866,344.206 380.375,344.373 L351.383,320.629 L325.265,326.208 L326.521,324.578 L377.372,313.714 L392.884,290.046 C393.357,290.13 393.829,290.22 394.3,290.315 L379.224,313.319 L419.737,304.664 C419.893,304.858 420.053,305.046 420.205,305.245 L420.206,305.247" id="Fill-31" fill="#1A8E75"></path>
            <path d="M208.216,163.586005 C201.233,163.581 195.576,157.915 195.581995,150.933 C195.587,143.95 201.253,138.293 208.236,138.297997 C215.219,138.304 220.875,143.969 220.870003,150.952 C220.864,157.936 215.199,163.592 208.216,163.586005 Z M242.085,144.975 C241.623,144.376 238.794,143.757 235.561,143.697 C234.849,141.002 233.75,138.466 232.325,136.149 C234.403,134.232 236.393,131.992 236.166,130.611 C235.706,127.808 229.636,123.029 228.442,122.875 C227.678,122.776 225.164,124.399 222.799,126.708 C220.492,125.319 217.973,124.247 215.299,123.558 C215.414,120.727 215.239,117.722 214.1,116.903 C211.792,115.247 204.121,116.16 203.168,116.894 C202.571,117.355 201.954,120.168 201.89,123.387 C199.129,124.02 196.522,125.056 194.134,126.431 C192.265,124.437 190.135,122.595 188.803,122.813 C186.001,123.274 181.222,129.344 181.068,130.538 C180.976,131.248 182.373,133.472 184.425,135.683 C182.865,138.112 181.663,140.793 180.902,143.656 C178.342,143.61 175.833,143.853 175.096,144.88 C173.44,147.187 174.353,154.858 175.088,155.811 C175.501,156.348 177.817,156.901 180.619,157.054 C181.284,160.07 182.425,162.906 183.969,165.477 C182.247,167.178 180.812,168.992 181.007,170.176 C181.466,172.979 187.537,177.757 188.73,177.912 C189.387,177.997 191.338,176.808 193.377,175.005 C195.953,176.599 198.805,177.785 201.844,178.487 C201.832,180.899 202.101,183.186 203.073,183.884 C205.38,185.54 213.051,184.627 214.004,183.892 C214.542,183.477 215.096,181.151 215.248,178.339 C218.191,177.587 220.945,176.368 223.436,174.774 C225.203,176.599 227.131,178.176 228.369,177.973 C231.172,177.513 235.95,171.443 236.105,170.249 C236.197,169.536 234.786,167.293 232.715,165.071 C234.128,162.628 235.185,159.956 235.818,157.121 C238.528,157.203 241.296,156.994 242.076,155.907 C243.733,153.6 242.82,145.929 242.085,144.975 L242.085,144.975 Z" id="Fill-32" fill="#BAE0DE"></path>
            <path d="M208.34,132.923995 C198.559,132.917 190.595,140.868 190.587995,150.649 C190.581,160.43 198.532,168.394 208.313,168.402005 C218.094,168.409 226.058,160.457 226.065006,150.677 C226.073,140.895 218.121,132.932 208.34,132.923995 Z M208.313,168.657006 C198.391,168.649 190.325,160.571 190.332994,150.649 C190.34,140.728 198.419,132.662 208.34,132.668995 C218.262,132.677 226.328,140.755 226.320006,150.677 C226.313,160.599 218.235,168.665 208.313,168.657006 L208.313,168.657006 Z" id="Fill-33" fill="#FFFFFE"></path>
            <path d="M233.867,145.478 C233.749,145.464 233.63,145.448 233.512,145.429 C233.91,147.23 234.126,149.099 234.125,151.018 C234.113,165.243 222.532,176.807 208.307,176.796 C198.992,176.789 190.82,171.82 186.29,164.398 C186.289,164.398 186.288,164.398 186.287,164.399 C186.171,164.424 186.054,164.445 185.937,164.462 C190.513,172.042 198.825,177.124 208.306,177.131009 C222.716,177.143 234.448,165.428 234.460004,151.019 C234.461,149.117 234.253,147.265 233.867,145.478" id="Fill-34" fill="#FFFFFE"></path>
            <path d="M192.569,130.593 C196.936,127.212 202.409,125.195 208.346,125.2 C208.463,125.2 208.577,125.207 208.693,125.209 C208.652,125.098 208.617,124.984 208.581,124.871 C208.503,124.87 208.425,124.864991 208.347,124.864991 C202.357,124.86 196.834,126.886 192.419,130.285 C192.471,130.386 192.521,130.489 192.569,130.593" id="Fill-35" fill="#FFFFFE"></path>
            <path d="M295.491,193.036 C294.097,203.171 284.75,210.257 274.613,208.864 C264.478,207.469 257.392,198.122 258.786,187.986 C260.18,177.85 269.528,170.764 279.663,172.158 C289.799,173.552 296.886,182.899 295.491,193.036 Z M275.199,140.174 C274.237,140.726 272.778,144.71 272.048,149.391 C267.995,149.89 264.095,150.982 260.449,152.59 C258.078,149.194 255.222,145.86 253.172,145.915 C249.012,146.026 240.87,153.889 240.408,155.591 C240.113,156.68 241.971,160.652 244.853,164.545 C242.377,167.617 240.321,171.061 238.791,174.806 C234.703,174.077 230.306,173.733 228.892,175.226 C226.029,178.246 225.832,189.563 226.709,191.093 C227.259,192.051 231.219,193.505 235.881,194.237 C236.25,198.372 237.236,202.361 238.759,206.1 C235.493,208.418 232.396,211.144 232.449,213.121 C232.561,217.281 240.424,225.422 242.125,225.883 C243.139,226.158 246.645,224.572 250.262,222.031 C253.479,224.779 257.131,227.055 261.136,228.729 C260.562,232.436 260.416,236.126 261.76,237.4 C264.78,240.263 276.098,240.46 277.627,239.582 C278.488,239.088 279.751,235.837 280.529,231.799 C285.039,231.433 289.383,230.339 293.421,228.609 C295.549,231.447 297.898,233.89 299.654,233.843 C303.815,233.731 311.956,225.869 312.418,224.166 C312.672,223.23 311.333,220.162 309.121,216.845 C311.946,213.421 314.235,209.516 315.857,205.244 C319.357,205.741 322.73,205.803 323.935,204.532 C326.797,201.511 326.994,190.194 326.117,188.665 C325.622,187.801 322.356,186.535 318.304,185.757 C317.796,181.336 316.572,177.096 314.754,173.162 C317.754,170.959 320.427,168.474 320.377,166.637 C320.266,162.477 312.403,154.335 310.701,153.874 C309.683,153.598 306.147,155.202 302.511,157.765 C299.244,155.229 295.575,153.165 291.586,151.684 C292.243,147.766 292.489,143.706 291.067,142.357 C288.046,139.494 276.729,139.297 275.199,140.174 L275.199,140.174 Z" id="Fill-36" fill="#AEDCE9"></path>
            <path d="M251.006,186.767 C249.053,200.964 259.014,214.104 273.211,216.056 C287.408,218.009 300.548,208.048 302.501,193.851 C304.453,179.653 294.492,166.515 280.295,164.561 C266.098,162.608 252.958,172.57 251.006,186.767 Z M302.871,193.902 C300.89,208.303 287.562,218.409 273.16,216.427 C258.759,214.446 248.654,201.118 250.635,186.716 C252.616,172.314 265.945,162.21 280.346,164.191 C294.747,166.172 304.853,179.5 302.871,193.902 L302.871,193.902 Z" id="Fill-37" fill="#FFFFFE"></path>
            <path d="M274.297,152.203 C274.253,152.373 274.207,152.541 274.156,152.709 C276.85,152.489 279.605,152.546 282.391,152.93 C303.038,155.77 317.526,174.879 314.686,195.527 C312.826,209.046 303.99,219.923 292.317,225.026 C292.317,225.027 292.317,225.029 292.317,225.03 C292.331,225.204 292.338,225.376 292.34,225.55 C304.251,220.414 313.279,209.355 315.172,195.593 C318.049,174.678 303.373,155.321 282.457,152.443 C279.698,152.064 276.968,151.998 274.297,152.203" id="Fill-38" fill="#FFFFFE"></path>
            <path d="M244.489,209.199 C240.449,202.188 238.608,193.843 239.794,185.225 C239.817,185.056 239.85,184.891 239.875,184.723 C239.706,184.761 239.534,184.789 239.362,184.818 C239.346,184.932 239.323,185.043 239.307,185.158 C238.111,193.852 239.956,202.272 244.013,209.356 C244.17,209.3 244.329,209.248 244.489,209.199" id="Fill-39" fill="#FFFFFE"></path>
            <path d="M200.212,287.748 C200.212,287.748 214.784,216.85 170.636,187.471 C96.122,240.131 148.11,313.275 148.11,313.275 L200.212,287.748" id="Fill-40" fill="#1A8067"></path>
            <path d="M170.636,187.471 C170.377,187.655 170.125,187.839 169.869,188.023 L174.112,273.201 L132.325,240.294 C132.195,240.873 132.074,241.451 131.959,242.027 L174.217,275.304 L175.442,299.883 L176.994,299.124 L174.552,250.125 L174.553,250.126 L199.306,231.747 C199.174,231.188 199.04,230.629 198.898,230.071 L174.457,248.217 L171.459,188.042 C171.184,187.853 170.917,187.658 170.637,187.471 L170.636,187.471" id="Fill-41" fill="#FFFFFE"></path>
            <path d="M179.789,274.064 C179.789,274.064 146.949,209.789 96.174,208.605 C65.115,261.197 118.506,304.75 118.506,304.75 L178.988,322.805 L179.789,274.064" id="Fill-42" fill="#1BAE90"></path>
            <path d="M147.403,232.038 L136.023,261.954 L97.374,208.656 C96.974,208.638 96.576,208.614 96.174,208.605 C96.051,208.812 95.942,209.017 95.822,209.224 L116.522,237.769 L86.92,234.963 C86.886,235.245 86.86,235.523 86.83,235.802 L86.76,236.544 L117.765,239.483 L152.261,287.053 L100.15,283.787 C100.525,284.35 100.901,284.906 101.278,285.45 L153.47,288.721 L177.966,322.5 L178.988,322.805 L179.014,321.238 L137.138,263.492 L148.66,233.204 C148.245,232.813 147.826,232.424 147.403,232.038" id="Fill-43" fill="#1F847F"></path>
            <path d="M165.845,305.661 C165.845,305.661 112.434,277.791 82.003,304.457 C95.562,385.959 200.191,374.465 200.191,374.465 L165.845,305.661" id="Fill-44" fill="#5BBBA4"></path>
            <path d="M82.003,304.458 C82.055,304.772 82.113,305.081 82.168,305.392 L157.194,337.457 L118.066,358.466 C118.597,358.788 119.132,359.101 119.669,359.41 L159.064,338.256 L188.368,350.781 L187.271,348.582 L130.218,324.198 L117.483,292.925 C116.909,292.916 116.336,292.913 115.762,292.916 L128.14,323.31 L82.686,303.883 C82.459,304.075 82.229,304.259 82.003,304.456 L82.003,304.458" id="Fill-45" fill="#1A8E75"></path>
            <path d="M319.687,305.071 L308.275,297.901 L343.881,282.025 L329.143,248.46 C322.327,234.145 304.725,222.54 287.911,222.53 L214.606,222.53 C197.792,222.54 180.189,234.145 173.374,248.46 L158.635,282.025 L194.242,297.901 L182.831,305.071 L176.507,359.614 L251.259,358.442 L326.009,359.614 L319.687,305.071" id="Fill-46" fill="#1FB2D4"></path>
            <path d="M343.881,282.025 L351.232,306.307 C356.594,324.023 350.871,343.043 336.405,355.583 L303.051,381.636 L292.329,352.479 L310.778,335.274 C316.835,329.625 318.641,321.132 315.351,313.76 L308.275,297.901 L343.881,282.025" id="Fill-47" fill="#F0AB85"></path>
            <path d="M159.002,282.025 L151.652,306.307 C146.289,324.023 152.012,343.043 166.478,355.583 L199.832,381.636 L210.553,352.479 L192.106,335.274 C186.048,329.625 184.242,321.132 187.532,313.76 L194.608,297.901 L159.002,282.025" id="Fill-48" fill="#F0AB85"></path>
            <polygon id="Fill-49" fill="#BEE3ED" points="184.28 378.947 318.46 378.947 318.46 298.642 184.28 298.642"></polygon>
            <polygon id="Fill-50" fill="#9FC3C9" points="184.28 382.293 318.46 382.293 318.46 375.601 184.28 375.601"></polygon>
            <path d="M246.003,331.406 C246.003,334.37 248.405,336.773 251.37,336.773 C254.334,336.773 256.737,334.37 256.737,331.406 C256.737,328.442 254.334,326.039 251.37,326.039 C248.405,326.039 246.003,328.442 246.003,331.406" id="Fill-51" fill="#5CAFCB"></path>
            <path d="M264.241,222.373 C261.958,215.458 257.82,194.961 257.82,194.961 L231.434,200.114 L231.434,222.492 C231.434,222.492 240.19,228.702 247.557,228.762 C255.605,228.829 264.526,223.152 264.241,222.373" id="Fill-52" fill="#EC967C"></path>
            <path d="M264.259,158.641 L259.287,129.329 L208.586,135.332 L211.659,169.098 C211.659,169.098 215.578,210.887 242.568,205.915 C271.76,200.538 265.559,158.268 264.259,158.641" id="Fill-53" fill="#F0AB85"></path>
            <path d="M276.101,154.631 C275.424,151.076 276.368,145.527 278.256,142.439 C287.013,128.108 273.759,123.942 269.137,122.705 C264.026,121.337 262.398,113.38 255.533,110.841 C245.052,106.963 239.15,116.347 233.464,117.069 C227.777,117.792 222.16,111.72 215.565,117.999 C208.97,124.279 211.791,130.131 210.116,133.517 C208.442,136.903 201.56,131.228 196.56,141.827 C192.756,149.888 196.956,154.616 202.108,157.33 C208.104,160.487 215.269,160.487 221.488,157.797 C226.873,155.468 234.306,151.566 241.825,145.441 C243.799,143.834 259.272,142.769 260.558,144.966 C264.918,152.415 265.273,177.193 265.273,177.193 L269.787,170.873 C269.787,170.873 278.154,165.433 276.101,154.631" id="Fill-54" fill="#2E3130"></path>
            <path d="M259.469,162.294 C258.11,165.83 258.92,169.432 261.279,170.34 C263.64,171.248 266.655,169.117 268.016,165.581 C269.375,162.044 268.565,158.442 266.205,157.534 C263.845,156.627 260.829,158.758 259.469,162.294" id="Fill-55" fill="#F0AB85"></path>
            <path d="M337.979,77.351 L337.01,77.107 C337.427,75.449 337.639,73.735 337.638,72.014 L337.625,71.089 L338.625,71.072 L338.638003,72.013 C338.639,73.817 338.417,75.613 337.979,77.351 Z M331.558,88.096 L330.882,87.359 C332.375,85.99 333.658,84.416 334.697,82.681 L335.555,83.194 C334.467,85.012 333.122,86.662 331.558,88.096 Z M320.294,93.553 L320.136,92.566 C322.133,92.246 324.07,91.636 325.892,90.752 L326.327,91.652 C324.417,92.578 322.388,93.218 320.294,93.553 Z M283.011,93.83 L289.214,93.83 L289.214,92.83 L283.011,92.83 L283.011,93.83 Z M295.418,93.83 L301.621,93.83 L301.621,92.83 L295.418,92.83 L295.418,93.83 Z M307.824,93.83 L314.028,93.83 L314.028,92.83 L307.824,92.83 L307.824,93.83 Z M270.948,95.261 L270.607,94.321 C272.588,93.601 274.659,93.136 276.766,92.939 L276.859,93.935 C274.838,94.123 272.85,94.569 270.948,95.261 Z M261.056,102.082 L260.3,101.427 C261.684,99.83 263.265,98.413 265.001,97.216 L265.569,98.039 C263.903,99.188 262.384,100.549 261.056,102.082 Z M255.73,112.856 L254.75,112.654 C255.176,110.587 255.867,108.578 256.805,106.684 L257.701,107.127 C256.802,108.945 256.138,110.873 255.73,112.856 Z M254.237,125.126 L255.237,125.126 L255.237,118.923 L254.237,118.923 L254.237,125.126 Z" id="Fill-56" fill="#AEDCE9"></path>
            <polyline id="Fill-57" fill="#AEDCE9" points="337.527 64.837 337.479 61.837 338.479 61.822 338.527 64.821 337.527 64.837"></polyline>
            <path d="M148.166997,72.013 L148.18,71.072 L149.18,71.089 L149.166997,72.014 C149.166,73.735 149.378,75.449 149.795,77.107 L148.827,77.351 C148.388,75.613 148.166,73.817 148.166997,72.013 Z M151.25,83.194 L152.108,82.681 C153.147,84.416 154.43,85.99 155.923,87.359 L155.248,88.096 C153.683,86.662 152.338,85.012 151.25,83.194 Z M160.478,91.652 L160.913,90.752 C162.736,91.636 164.673,92.246 166.669,92.566 L166.511,93.553 C164.417,93.218 162.388,92.578 160.478,91.652 Z M197.591,93.83 L203.794,93.83 L203.794,92.83 L197.591,92.83 L197.591,93.83 Z M185.184,93.83 L191.387,93.83 L191.387,92.83 L185.184,92.83 L185.184,93.83 Z M172.778,93.83 L178.981,93.83 L178.981,92.83 L172.778,92.83 L172.778,93.83 Z M209.947,93.935 L210.04,92.939 C212.146,93.136 214.217,93.601 216.198,94.321 L215.857,95.261 C213.956,94.569 211.967,94.123 209.947,93.935 Z M221.237,98.039 L221.804,97.216 C223.54,98.413 225.122,99.83 226.505,101.427 L225.749,102.082 C224.421,100.549 222.903,99.188 221.237,98.039 Z M229.104,107.127 L230.001,106.684 C230.938,108.578 231.629,110.587 232.056,112.654 L231.076,112.856 C230.667,110.873 230.004,108.945 229.104,107.127 Z M231.568,125.126 L232.568,125.126 L232.568,118.923 L231.568,118.923 L231.568,125.126 Z" id="Fill-58" fill="#AEDCE9"></path>
            <polyline id="Fill-59" fill="#AEDCE9" points="149.278 64.837 149.327 61.837 148.327 61.822 148.278 64.821 149.278 64.837"></polyline>
            <path d="M243.502,76.914 L244.502,76.914 L244.502,70.868 L243.502,70.868 L243.502,76.914 Z M243.502,89.006 L244.502,89.006 L244.502,82.96 L243.502,82.96 L243.502,89.006 Z M243.502,101.099 L244.502,101.099 L244.502,95.052 L243.502,95.052 L243.502,101.099 Z M243.502,113.191 L244.502,113.191 L244.502,107.144 L243.502,107.144 L243.502,113.191 Z M243.502,125.283 L244.502,125.283 L244.502,119.237 L243.502,119.237 L243.502,125.283 Z" id="Fill-60" fill="#AEDCE9"></path>
            <polygon id="Fill-61" fill="#AEDCE9" points="243.502 64.822 244.502 64.822 244.502 61.822 243.502 61.822"></polygon>
            <path d="M236.983,65.731 L252.226,65.648 C252.226,65.648 251.065,61.013 251.499,57.453 C251.663,56.107 252.48,54.917 253.629,54.199 C268.568,44.858 264.904,34.19 264.904,34.19 C264.904,34.19 263.279,20.645 244.078,19.436 C223.607,18.148 224.93,36.331 224.93,36.331 C224.93,36.331 224.051,46.457 234.707,53.272 C236.231,54.247 237.199,55.892 237.429,57.686 C238.005,62.194 236.983,65.731 236.983,65.731" id="Fill-62" fill="#BEE3ED"></path>
            <path d="M252.225,65.611 L252.255068,71.071 C252.266,73.117 250.939,74.798 249.306,74.807 L240.024,74.8570363 C238.391,74.866 237.046,73.199 237.034,71.154 L237.005,65.694 L252.225,65.611" id="Fill-63" fill="#2BA6D2"></path>
            <polyline id="Fill-64" fill="#14364D" points="248.346 74.812 247.31 77.312 241.538 77.344 240.263 74.856 248.346 74.812"></polyline>
            <path d="M251.287,41.215 C250.115,42.965 248.242,43.466 246.302,43.309 L246.28395,39.984 C246.28,39.367 246.517,38.771 246.955,38.335 C247.736,37.557 249.13,36.733 250.862,37.598 C251.953,38.27 252.083,40.026 251.287,41.215 Z M241.894,42.315 C240.423,41.835 238.342,40.852 238.141,39.389 C238.092,39.031 238.248,38.664 238.515,38.422 C241.081,36.1 241.858,40.262 241.847,40.784 C241.902,41.288 241.9,41.802 241.894,42.315 Z M252.178,41.387 C254.473,37.059 248.762,34.95 246.082,37.919 C245.597,38.457 245.381,39.184 245.371,39.908 C245.353,41.19 245.381,43.186 245.381,43.186 C244.571,43.051 243.671,42.843 242.988,42.646 C243.015,41.409 242.995,40.13 242.632,39.066 C241.018,34.344 234.961,38.033 238.516,41.397 C239.348,42.184 240.571,42.769 241.89,43.191 C241.994,50.668 242.098,58.144 242.202,65.621 L243.243,65.616 C243.18,61.02 243.115,56.425 243.052,51.829 C243.019,49.444 242.986,47.059 242.952,44.675 C242.946,44.301 242.956,43.902 242.967,43.494 C243.745,43.683 244.523,43.816 245.264,43.894 L245.382,65.604 L246.423,65.598 L246.306,43.972 C246.516,43.98 246.733,43.993 246.928,43.991 C248.908,43.976 251.191,43.251 252.178,41.387 L252.178,41.387 Z" id="Fill-65" fill="#2A8AA4"></path>
            <path d="M224.562,15.824 C224.875,15.507 224.872,14.997 224.556,14.684 L216.818,7.03 C216.502,6.717 215.991,6.72 215.678,7.037 C215.365,7.353 215.367,7.863 215.684,8.177 L223.422,15.83 C223.738,16.144 224.248,16.141 224.562,15.824" id="Fill-66" fill="#2A8AA4"></path>
            <g id="Group-70" transform="translate(243.000000, 0.000000)">
                <mask id="mask-4" fill="white">
                    <use xlink:href="#path-3"></use>
                </mask>
                <g id="Clip-68"></g>
                <path d="M15.532,15.64 C15.216,15.326 15.213,14.816 15.527,14.499 L23.18,6.763 C23.493,6.446 24.003,6.443 24.32,6.756 C24.637,7.07 24.64,7.58 24.326,7.896 L16.673,15.634 C16.36,15.951 15.849,15.953 15.532,15.64" id="Fill-67" fill="#2A8AA4" mask="url(#mask-4)"></path>
                <path d="M0.967,12.8940187 C1.413,12.892 1.772,12.53 1.769,12.084 L1.71,1.201 C1.707,0.755 1.345,0.397 0.9,0.398991661 C0.454,0.402 0.096,0.764 0.0979916608,1.209 L0.156,12.093 C0.159,12.538 0.522,12.897 0.967,12.8940187" id="Fill-69" fill="#2A8AA4" mask="url(#mask-4)"></path>
            </g>
            <path d="M328.96,65.731 L344.201,65.648 C344.201,65.648 343.04,61.013 343.476,57.453 C343.64,56.107 344.456,54.917 345.606,54.199 C360.543,44.858 356.881,34.19 356.881,34.19 C356.881,34.19 355.255,20.645 336.054,19.436 C315.583,18.148 316.906,36.331 316.906,36.331 C316.906,36.331 316.028,46.457 326.683,53.272 C328.207,54.247 329.176,55.892 329.405,57.686 C329.982,62.194 328.96,65.731 328.96,65.731" id="Fill-71" fill="#BEE3ED"></path>
            <path d="M344.201,65.611 L344.232056,71.071 C344.242,73.117 342.915,74.798 341.281,74.807 L332,74.8570363 C330.367,74.866 329.022,73.199 329.011,71.154 L328.982,65.694 L344.201,65.611" id="Fill-72" fill="#2BA6D2"></path>
            <polyline id="Fill-73" fill="#14364D" points="340.322 74.812 339.286 77.312 333.515 77.344 332.239 74.856 340.322 74.812"></polyline>
            <path d="M343.263,41.215 C342.092,42.965 340.219,43.466 338.279,43.309 L338.26095,39.984 C338.257,39.367 338.493,38.771 338.932,38.335 C339.713,37.557 341.107,36.733 342.839,37.598 C343.929,38.27 344.06,40.026 343.263,41.215 Z M333.87,42.315 C332.4,41.835 330.319,40.852 330.118,39.389 C330.069,39.031 330.224,38.664 330.492,38.422 C333.058,36.1 333.834,40.262 333.823,40.784 C333.878,41.288 333.876,41.802 333.87,42.315 Z M344.154,41.387 C346.448,37.059 340.738,34.95 338.058,37.919 C337.573,38.457 337.358,39.184 337.347,39.908 C337.329,41.19 337.358,43.186 337.358,43.186 C336.548,43.051 335.648,42.843 334.965,42.646 C334.991,41.409 334.971,40.13 334.608,39.066 C332.994,34.344 326.938,38.033 330.492,41.397 C331.324,42.184 332.548,42.769 333.866,43.191 C333.971,50.668 334.074,58.144 334.179,65.621 L335.22,65.616 C335.155,61.02 335.092,56.425 335.028,51.829 C334.994,49.444 334.961,47.059 334.929,44.675 C334.923,44.301 334.933,43.902 334.944,43.494 C335.722,43.683 336.499,43.816 337.24,43.894 L337.359,65.604 L338.4,65.598 L338.282,43.972 C338.492,43.98 338.709,43.993 338.904,43.991 C340.884,43.976 343.166,43.251 344.154,41.387 L344.154,41.387 Z" id="Fill-74" fill="#2A8AA4"></path>
            <path d="M316.538,15.824 C316.852,15.507 316.849,14.997 316.532,14.684 L308.794,7.03 C308.478,6.717 307.968,6.72 307.654,7.037 C307.341,7.353 307.344,7.863 307.66,8.177 L315.398,15.83 C315.715,16.144 316.225,16.141 316.538,15.824" id="Fill-75" fill="#2A8AA4"></path>
            <g id="Group-79" transform="translate(335.000000, 0.000000)">
                <mask id="mask-6" fill="white">
                    <use xlink:href="#path-5"></use>
                </mask>
                <g id="Clip-77"></g>
                <path d="M15.509,15.64 C15.193,15.326 15.19,14.816 15.503,14.499 L23.156,6.763 C23.47,6.446 23.98,6.443 24.296,6.756 C24.613,7.07 24.616,7.58 24.303,7.896 L16.649,15.634 C16.335,15.951 15.825,15.953 15.509,15.64" id="Fill-76" fill="#2A8AA4" mask="url(#mask-6)"></path>
                <path d="M0.944,12.8940187 C1.39,12.892 1.748,12.53 1.745,12.084 L1.687,1.201 C1.684,0.755 1.321,0.397 0.876,0.398991661 C0.43,0.402 0.071,0.764 0.074,1.209 L0.133,12.093 C0.136,12.538 0.498,12.897 0.944,12.8940187" id="Fill-78" fill="#2A8AA4" mask="url(#mask-6)"></path>
            </g>
            <path d="M143.283,65.731 L158.526,65.648 C158.526,65.648 157.364,61.013 157.799,57.453 C157.964,56.107 158.78,54.917 159.929,54.199 C174.867,44.858 171.205,34.19 171.205,34.19 C171.205,34.19 169.579,20.645 150.378,19.436 C129.907,18.148 131.231,36.331 131.231,36.331 C131.231,36.331 130.351,46.457 141.007,53.272 C142.531,54.247 143.5,55.892 143.729,57.686 C144.305,62.194 143.283,65.731 143.283,65.731" id="Fill-80" fill="#BEE3ED"></path>
            <path d="M158.526,65.611 L158.555068,71.071 C158.566,73.117 157.239,74.798 155.606,74.807 L146.324,74.8570363 C144.691,74.866 143.346,73.199 143.335,71.154 L143.305,65.694 L158.526,65.611" id="Fill-81" fill="#2BA6D2"></path>
            <polyline id="Fill-82" fill="#14364D" points="154.646 74.812 153.61 77.312 147.839 77.344 146.563 74.856 154.646 74.812"></polyline>
            <path d="M157.587,41.215 C156.416,42.965 154.543,43.466 152.603,43.309 L152.58495,39.984 C152.581,39.367 152.818,38.771 153.256,38.335 C154.037,37.557 155.431,36.733 157.162,37.598 C158.253,38.27 158.383,40.026 157.587,41.215 Z M148.194,42.315 C146.724,41.835 144.643,40.852 144.442,39.389 C144.393,39.031 144.548,38.664 144.816,38.422 C147.382,36.1 148.158,40.262 148.147,40.784 C148.202,41.288 148.2,41.802 148.194,42.315 Z M158.479,41.387 C160.773,37.059 155.062,34.95 152.382,37.919 C151.897,38.457 151.682,39.184 151.671,39.908 C151.653,41.19 151.682,43.186 151.682,43.186 C150.872,43.051 149.972,42.843 149.289,42.646 C149.316,41.409 149.295,40.13 148.932,39.066 C147.319,34.344 141.261,38.033 144.816,41.397 C145.648,42.184 146.871,42.769 148.191,43.191 C148.295,50.668 148.399,58.144 148.503,65.621 L149.544,65.616 C149.48,61.02 149.416,56.425 149.352,51.829 C149.319,49.444 149.285,47.059 149.252,44.675 C149.247,44.301 149.257,43.902 149.267,43.494 C150.046,43.683 150.823,43.816 151.565,43.894 L151.682,65.604 L152.724,65.598 L152.606,43.972 C152.817,43.98 153.033,43.993 153.228,43.991 C155.208,43.976 157.49,43.251 158.479,41.387 L158.479,41.387 Z" id="Fill-83" fill="#2A8AA4"></path>
            <path d="M130.862,15.824 C131.175,15.507 131.173,14.997 130.856,14.684 L123.118,7.03 C122.802,6.717 122.292,6.72 121.978,7.037 C121.665,7.353 121.668,7.863 121.985,8.177 L129.722,15.83 C130.039,16.144 130.549,16.141 130.862,15.824" id="Fill-84" fill="#2A8AA4"></path>
            <g id="Group-88" transform="translate(149.000000, 0.000000)">
                <mask id="mask-8" fill="white">
                    <use xlink:href="#path-7"></use>
                </mask>
                <g id="Clip-86"></g>
                <path d="M15.833,15.64 C15.516,15.326 15.513,14.816 15.827,14.499 L23.481,6.763 C23.794,6.446 24.303,6.443 24.62,6.756 C24.937,7.07 24.94,7.58 24.627,7.896 L16.973,15.634 C16.659,15.951 16.15,15.953 15.833,15.64" id="Fill-85" fill="#2A8AA4" mask="url(#mask-8)"></path>
                <path d="M1.268,12.8940187 C1.713,12.892 2.072,12.53 2.07000832,12.084 L2.01,1.201 C2.008,0.755 1.646,0.397 1.2,0.398991661 C0.754,0.402 0.396,0.764 0.397991661,1.209 L0.457,12.093 C0.46,12.538 0.822,12.897 1.268,12.8940187" id="Fill-87" fill="#2A8AA4" mask="url(#mask-8)"></path>
            </g>
            <path d="M152.781,381.674 L155.563,381.674 C150.464,349.724 145.493,317.597 140.68,286.486 C137.441,265.541 134.091,243.883 130.724,222.426 L128.002,222.805 C131.368,244.26 134.718,265.916 137.958,286.86 C142.752,317.849 147.703,349.846 152.781,381.674" id="Fill-89" fill="#185F6C"></path>
            <path d="M72.779,381.674 L75.561,381.674 C70.462,349.724 65.491,317.597 60.678,286.486 C57.439,265.541 54.089,243.883 50.722,222.426 L48,222.805 C51.366,244.26 54.716,265.916 57.956,286.86 C62.749,317.849 67.7,349.846 72.779,381.674" id="Fill-90" fill="#185F6C"></path>
            <path d="M153.064,283.78 C129.814,238.721 129.812,150.699 129.812,150.699 L107.784,283.78 L153.064,283.78" id="Fill-91" fill="#23618A"></path>
            <path d="M2.784,386.857 C11.282,335.248 18.843,285.416 26.836,232.726 L29.517,226.989 L26.793,226.623 L24.112,232.36 C16.1,285.176 8.522,335.121 0,386.857 L2.784,386.857" id="Fill-92" fill="#185F6C"></path>
            <path d="M113.252,226.616 C109.882,248.084 106.531,269.753 103.29,290.709 C98.96,318.702 94.501,347.516 89.936,376.283 C90.852,375.976 91.819,375.778 92.811,375.698 C97.322,347.249 101.73,318.763 106.012,291.083 C109.254,270.128 112.605,248.461 115.973,226.995 L113.252,226.616" id="Fill-93" fill="#185F6C"></path>
            <polyline id="Fill-94" fill="#1E4773" points="140.233 286.338 123.895 185.097 102.113 279.158 104.963 286.338 140.233 286.338"></polyline>
            <path d="M29.636,145.398 C51.021,142.008 129.812,147.035 129.812,147.035 C129.812,147.035 132.006,248.451 106.746,282.489 C80.992,282.508 0.828,282.489 0.828,282.489 C0.828,282.489 32.515,217.24 29.636,145.398" id="Fill-95" fill="#0DB3D1"></path>
            <polyline id="Fill-96" fill="#35609D" points="3.77 282.508 7.478 288.716 106.043 288.759 107.402 282.508 3.77 282.508"></polyline>
            <polyline id="Fill-97" fill="#35609D" points="29.801 143.112 30.794 149.321 129.359 149.364 129.812 143.112 29.801 143.112"></polyline>
            <path d="M122.421,146.238 C122.421,148.67 124.514,150.643 127.097,150.643 C129.679,150.643 131.773,148.67 131.773,146.238 C131.773,143.805 129.679,141.833 127.097,141.833 C124.514,141.833 122.421,143.805 122.421,146.238" id="Fill-98" fill="#35609D"></path>
            <path d="M24.84,146.238 C24.84,148.67 26.934,150.643 29.517,150.643 C32.099,150.643 34.193,148.67 34.193,146.238 C34.193,143.805 32.099,141.833 29.517,141.833 C26.934,141.833 24.84,143.805 24.84,146.238" id="Fill-99" fill="#35609D"></path>
            <path d="M65.715,231.463 C65.415,235.633 65.077,239.796 65.044,243.98 C65.039,244.637 66.097,244.96 66.257,244.232 C66.812,241.705 66.37,239.337 66.43,236.768 C66.449,235.968 65.228,235.874 65.183,236.681 C65.046,239.154 64.26,244.423 65.764,246.624 C67.064,248.525 70.672,247.771 72.541,247.737 C73.195,247.725 73.521,246.723 72.792,246.524 C70.266,245.832 67.715,245.359 65.274,244.383 C65.191,244.788 65.107,245.192 65.023,245.596 C69.702,245.622 74.298,246.501 78.952,246.881 C78.981,246.466 79.01,246.05 79.039,245.634 C76.575,245.478 74.15,245.04 71.697,244.78 C70.879,244.693 70.84,245.88 71.61,246.027 C74.095,246.498 76.576,246.853 79.099,247.06 C79.128,246.644 79.157,246.228 79.186,245.813 C76.666,245.636 74.146,245.46 71.626,245.284 C70.822,245.228 70.739,246.45 71.539,246.531 C73.97,246.779 77.849,248.156 80.09,246.637 C82.216,245.197 81.386,241.56 81.45,239.395 C81.474,238.591 80.287,238.505 80.203,239.307 C80.039,240.884 79.859,242.33 80.072,243.896 C80.16,244.54 81.06,244.519 81.275,243.98 C82.48,240.954 82.81,237.461 82.116,234.275 C81.994,233.715 81.065,233.561 80.914,234.191 C80.513,235.864 80.447,237.483 80.386,239.202 C80.798,239.174 81.21,239.148 81.622,239.122 C81.473,237.204 81.281,235.354 80.788,233.493 C80.603,232.79 79.669,232.881 79.552,233.573 C79.377,234.373 79.281,235.182 79.265,236 C79.21,236.803 80.456,236.891 80.512,236.087 C80.657,234.01 80.802,231.933 80.948,229.855 C81.004,229.053 79.757,228.964 79.701,229.768 C79.556,231.845 79.41,233.923 79.265,236 C79.681,236.03 80.096,236.059 80.512,236.087 C80.529,235.269 80.624,234.46 80.799,233.661 C80.387,233.687 79.975,233.713 79.563,233.741 C80.056,235.601 80.248,237.455 80.397,239.369 C80.451,240.074 81.608,239.984 81.632,239.289 C81.69,237.683 81.712,236.197 82.093,234.607 C81.692,234.579 81.291,234.55 80.891,234.523 C81.539,237.497 81.219,240.744 80.095,243.565 C80.496,243.593 80.897,243.621 81.298,243.649 C81.096,242.17 81.299,240.845 81.45,239.395 C81.035,239.366 80.619,239.336 80.203,239.307 C80.128,241.875 81.072,245.524 77.61,245.952 C75.679,246.19 73.546,245.48 71.626,245.284 C71.597,245.7 71.568,246.116 71.539,246.531 C74.059,246.707 76.579,246.883 79.099,247.06 C79.901,247.116 79.988,245.878 79.186,245.813 C76.664,245.606 74.183,245.25 71.697,244.78 C71.668,245.196 71.638,245.611 71.61,246.027 C74.063,246.287 76.487,246.725 78.952,246.881 C79.755,246.933 79.842,245.701 79.039,245.634 C74.385,245.254 69.79,244.374 65.11,244.349 C64.41,244.345 64.188,245.293 64.859,245.562 C67.298,246.539 69.85,247.011 72.377,247.703 C72.46,247.298 72.544,246.894 72.628,246.49 C71.91,246.502 71.192,246.546 70.474,246.558 C69.9,246.578 69.325,246.575 68.752,246.549 C67.679,246.777 67.099,246.362 67.011,245.305 C65.633,243.377 66.305,239.011 66.43,236.768 C66.014,236.74 65.599,236.71 65.183,236.681 C65.127,239.066 65.596,241.457 65.078,243.816 C65.482,243.9 65.886,243.984 66.291,244.067 C66.323,239.884 66.662,235.72 66.962,231.55 C67.02,230.748 65.773,230.66 65.715,231.463" id="Fill-100" fill="#B0DDE8"></path>
            <path d="M81.2,230.708 C81.357,229.832 81.514,228.955 81.671,228.078 C81.291,227.945 80.911,227.813 80.531,227.681 C80.382,228.487 80.233,229.292 80.084,230.098 C79.943,230.715 80.555,231.155 81.084,230.778 C85.317,227.757 89.144,223.21 92.177,219.001 C94.858,215.282 96.916,211.562 96.424,206.818 C95.284,195.817 82.495,192.154 73.293,191.782 C65.084,191.451 55.998,198.399 54.072,206.535 C53.152,210.419 54.557,213.868 56.749,217.046 C58.404,219.447 60.499,221.494 62.204,223.848 C64.588,227.14 64.471,230.121 65.39,233.915 C65.509,234.404 66.232,234.629 66.52,234.143 C67.067,233.22 66.985,233.464 67.215,232.403 C67.382,231.625 66.205,231.203 66.035,231.987 C65.852,232.471 65.67,232.955 65.487,233.439 C65.864,233.515 66.24,233.591 66.616,233.667 C65.9,230.714 66.064,227.456 64.478,224.785 C62.891,222.111 60.433,219.925 58.576,217.437 C54.661,212.19 53.884,206.9 57.993,201.483 C60.609,198.035 64.994,194.058 69.301,193.188 C78.758,191.278 93.878,196.036 95.098,206.988 C95.7,212.391 92.489,216.795 89.244,220.798 C86.904,223.685 83.367,227.62 80.264,229.834 C80.597,230.06 80.93,230.287 81.263,230.513 C81.549,229.266 81.598,229.027 81.778,227.768 C81.866,227.153 80.957,226.86 80.638,227.373 C79.856,228.63 79.785,229.449 79.974,230.956 C80.074,231.753 81.299,231.504 81.2,230.708" id="Fill-101" fill="#B0DDE8"></path>
            <path d="M80.471,230.091 C81.544,229.835 82.167,229.319 82.966,228.55 C84.078,227.479 85.429,226.794 86.656,225.877 C86.383,225.563 86.11,225.249 85.837,224.934 C84.425,226.503 82.745,227.596 80.9,228.599 C81.2,228.8 81.501,229.002 81.801,229.204 C82.055,227.267 84.883,225.932 86.264,224.835 C88.081,223.394 89.7,221.738 90.764,219.664 C91.128,218.956 90.098,218.245 89.732,218.959 C88.385,221.583 86.168,223.338 83.856,225.065 C82.476,226.096 80.795,227.285 80.554,229.117 C80.493,229.582 81.052,229.939 81.454,229.72 C83.394,228.665 85.169,227.531 86.656,225.877 C87.187,225.288 86.495,224.442 85.837,224.934 C84.952,225.594 83.957,226.089 83.085,226.763 C82.138,227.496 81.472,228.568 80.224,228.866 C79.445,229.052 79.686,230.28 80.471,230.091" id="Fill-102" fill="#B0DDE8"></path>
            <path d="M79.704,232.107 C79.549,233.903 79.062,235.625 78.69,237.383 C78.525,238.161 79.702,238.583 79.869,237.798 C80.265,235.931 80.786,234.103 80.951,232.195 C81.021,231.393 79.774,231.305 79.704,232.107" id="Fill-103" fill="#B0DDE8"></path>
            <path d="M70.712,237.66 C70.974,234.883 77.985,206.735 69.829,208.667 C67.739,209.163 67.578,212.236 68.456,213.764 C69.762,216.04 73.203,216.699 75.576,216.738 C77.998,216.779 81.279,216.17 82.477,213.753 C83.255,212.183 82.958,209.242 80.983,208.647 C73.133,206.287 73.958,235.093 73.753,238.374 C73.702,239.176 74.949,239.265 75,238.461 C75.366,232.607 75.378,226.719 76.024,220.885 C76.207,219.226 76.108,213.826 77.656,212.921 C78.413,212.479 82.41,213.692 78.859,215.002 C77.829,215.383 76.766,215.499 75.663,215.492 C74.504,215.483 71.532,215.429 70.924,214.316 C69.978,213.993 70.128,213.693 71.374,213.415 C72.886,212.211 73.312,212.977 72.65,215.713 C72.652,216.728 72.537,217.763 72.45,218.773 C71.904,225.113 70.064,231.238 69.465,237.573 C69.389,238.374 70.636,238.461 70.712,237.66" id="Fill-104" fill="#B0DDE8"></path>
            <path d="M79.998,212.978 C78.77,212.374 77.339,213.051 76.765,214.213 C76.454,214.843 77.532,215.395 77.87,214.774 C78.132,214.294 78.519,213.55 79.149,213.524 C78.959,213.357 78.769,213.191 78.579,213.024 C78.761,213.598 78.258,213.901 77.812,214.166 C77.284,214.479 76.726,214.733 76.226,215.092 C76.52,215.113 76.814,215.133 77.108,215.154 C77.029,215.04 76.965,214.894 76.943,214.823 C76.937,214.8 76.902,214.629 76.918,214.744 C76.914,214.713 76.943,214.483 76.915,214.625 C76.953,214.431 77.003,214.379 77.237,214.207 C77.583,213.953 78.256,213.783 78.753,213.756 C78.82,213.753 79.02,213.754 79.136,213.762 C79.279,213.772 79.438,213.799 79.441,213.8 C79.497,213.816 79.767,213.915 79.62,213.851 C79.789,213.925 79.664,213.861 79.663,213.859 C79.643,213.822 79.666,213.732 79.64,213.717 C79.687,213.745 79.624,213.771 79.63,213.762 C79.627,213.767 79.576,213.857 79.484,213.961 C79.219,214.26 78.758,214.545 78.387,214.767 C77.701,215.175 78.248,216.3 78.941,215.887 C79.636,215.473 80.592,214.929 80.838,214.09 C81.04,213.4 80.564,212.847 79.933,212.643 C78.723,212.25 76.863,212.598 76.046,213.625 C75.454,214.372 75.661,215.248 76.165,215.974 C76.369,216.269 76.797,216.214 77.046,216.036 C78.161,215.236 80.386,214.607 79.805,212.777 C79.728,212.537 79.525,212.265 79.236,212.277 C78.082,212.325 77.363,213.105 76.838,214.069 C77.207,214.255 77.575,214.443 77.944,214.629 C78.242,214.025 79.022,213.882 79.582,214.158 C80.303,214.512 80.711,213.329 79.998,212.978" id="Fill-105" fill="#B0DDE8"></path>
            <path d="M70.386,212.115 C71.14,212.766 71.354,214.071 71.759,214.943 C72.015,214.654 72.271,214.365 72.527,214.076 C72.001,213.842 71.499,213.587 71.045,213.23 C70.858,213.599 70.672,213.967 70.485,214.336 C71.274,214.617 72.322,214.749 72.908,214.001 C73.504,213.242 73.179,212.202 72.795,211.426 C72.439,210.706 71.317,211.256 71.674,211.98 C71.799,212.233 72.189,212.941 71.932,213.225 C71.71,213.472 71.137,213.241 70.9,213.157 C70.209,212.912 69.798,213.836 70.34,214.263 C70.877,214.685 71.491,214.979 72.112,215.255 C72.633,215.488 73.094,214.85 72.88,214.388 C72.349,213.249 72.079,211.937 71.091,211.082 C70.482,210.556 69.784,211.594 70.386,212.115" id="Fill-106" fill="#B0DDE8"></path>
            <path d="M49.319,178.897 C51.465,180.426 53.356,182.998 54.08,185.539 C54.299,186.306 55.527,186.067 55.306,185.291 C54.489,182.428 52.445,179.59 50.024,177.864 C49.367,177.396 48.664,178.431 49.319,178.897" id="Fill-107" fill="#B0DDE8"></path>
            <path d="M75.372,185.357 C75.565,182.415 75.626,179.467 76.155,176.558 C76.299,175.767 75.05,175.686 74.908,176.47 C74.38,179.379 74.318,182.328 74.125,185.27 C74.073,186.073 75.32,186.162 75.372,185.357" id="Fill-108" fill="#B0DDE8"></path>
            <path d="M90.34,189.895 C91.748,188.012 93.108,186.152 94.952,184.664 C95.579,184.158 94.757,183.216 94.132,183.721 C92.207,185.274 90.779,187.224 89.307,189.19 C88.824,189.836 89.86,190.538 90.34,189.895" id="Fill-109" fill="#B0DDE8"></path>
            <path d="M82.486,236.256 C82.717,234.004 83.435,231.646 82.541,229.467 C82.318,228.924 81.595,229.09 81.391,229.537 C80.842,230.739 80.844,231.905 80.74,233.214 C81.156,233.244 81.572,233.272 81.988,233.301 C81.94,232.548 81.924,232.314 81.788,231.581 C81.676,230.972 80.787,230.919 80.586,231.497 C79.172,235.561 79.098,240.275 78.817,244.52 C78.764,245.323 80.011,245.412 80.064,244.608 C80.337,240.478 80.393,235.856 81.765,231.913 C81.364,231.884 80.964,231.856 80.563,231.829 C80.622,232.29 80.681,232.752 80.74,233.214 C80.789,233.991 81.922,234.13 81.988,233.301 C82.082,232.108 82.049,231.093 82.571,229.952 C82.187,229.975 81.804,229.999 81.421,230.021 C82.19,231.897 81.437,234.241 81.239,236.169 C81.157,236.97 82.404,237.056 82.486,236.256" id="Fill-110" fill="#B0DDE8"></path>
            <path d="M80.407,242.691 C78.908,243.097 77.494,243.694 76.034,244.222 C76.299,244.526 76.563,244.831 76.827,245.134 C77.777,243.659 78.836,242.316 79.567,240.712 C79.791,240.22 79.157,239.683 78.7,239.944 C76.761,241.051 75.026,242.462 73.078,243.554 C73.343,243.859 73.607,244.163 73.872,244.467 C75.46,242.51 78.199,241.444 79.02,238.924 C79.175,238.446 78.642,237.856 78.153,238.156 C75.165,239.993 72.793,242.567 70.02,244.688 C70.329,244.962 70.637,245.237 70.946,245.512 C73.561,241.706 77.657,239.827 81.274,237.158 C81.772,236.79 81.331,235.913 80.74,236.074 C75.298,237.554 70.191,239.968 64.828,241.689 C65.041,242.01 65.255,242.332 65.468,242.654 C69.012,237.747 75.825,236.378 81.001,233.854 C80.737,233.549 80.472,233.246 80.208,232.941 C77.685,236.596 73.589,238.666 69.75,240.674 C70.014,240.978 70.279,241.283 70.543,241.586 C72.932,237.989 75.728,234.535 79.643,232.542 C79.414,232.199 79.185,231.854 78.956,231.51 C75.896,233.758 72.016,234.875 68.257,235.121 C68.435,235.482 68.613,235.843 68.791,236.206 C72.122,232.951 76.821,232.54 80.918,230.717 C81.601,230.414 81.187,229.467 80.517,229.544 C77.476,229.893 74.56,230.847 71.52,231.209 C70.722,231.304 70.972,232.53 71.768,232.435 C74.807,232.073 77.723,231.119 80.765,230.77 C80.632,230.378 80.498,229.988 80.364,229.597 C76.137,231.476 71.407,231.905 67.971,235.262 C67.492,235.729 67.896,236.386 68.505,236.346 C72.481,236.086 76.548,234.827 79.777,232.454 C80.354,232.029 79.713,231.105 79.089,231.421 C74.986,233.51 72.018,237.107 69.51,240.882 C69.172,241.392 69.739,242.09 70.303,241.794 C74.334,239.687 78.594,237.481 81.24,233.646 C81.598,233.128 81.006,232.46 80.447,232.733 C75.024,235.378 68.154,236.8 64.435,241.949 C64.138,242.36 64.543,243.084 65.075,242.915 C70.436,241.195 75.548,238.779 80.987,237.299 C80.81,236.938 80.632,236.576 80.454,236.214 C76.731,238.961 72.602,240.894 69.913,244.807 C69.498,245.412 70.289,246.053 70.84,245.631 C73.524,243.578 75.813,241.055 78.707,239.277 C78.419,239.02 78.13,238.764 77.841,238.508 C77.098,240.789 74.311,241.95 72.839,243.762 C72.445,244.249 73.102,244.973 73.632,244.675 C75.581,243.582 77.315,242.172 79.255,241.065 C78.966,240.809 78.676,240.553 78.388,240.296 C77.701,241.803 76.682,243.05 75.795,244.43 C75.433,244.993 76.022,245.547 76.588,245.343 C77.945,244.852 79.257,244.295 80.655,243.916 C81.426,243.707 81.187,242.48 80.407,242.691" id="Fill-111" fill="#B0DDE8"></path>
            <path d="M25.667,258.251 C36.333,258.251 47,258.251 57.667,258.251 C58.471,258.251 58.472,257.001 57.667,257.001 C47,257.001 36.333,257.001 25.667,257.001 C24.863,257.001 24.861,258.251 25.667,258.251" id="Fill-112" fill="#B0DDE8"></path>
            <path d="M24.333,266.917 C47.201,266.915 70.068,266.82 92.936,266.931 C92.936,266.514 92.936,266.097 92.936,265.681 C73.665,266.067 54.391,264.475 35.336,261.658 C35.281,262.067 35.225,262.476 35.17,262.885 C46.002,263.012 56.834,262.923 67.667,262.917 C68.471,262.917 68.472,261.667 67.667,261.667 C56.834,261.673 46.002,261.762 35.17,261.634958 C34.487,261.627 34.291,262.758 35.004,262.863 C54.171,265.698 73.551,267.32 92.936,266.931 C93.739,266.915 93.742,265.685 92.936,265.681 C70.068,265.57 47.201,265.665 24.333,265.667 C23.529,265.667 23.527,266.917 24.333,266.917" id="Fill-113" fill="#B0DDE8"></path>
            <path d="M97.3589179,379.609 C97.347,382.645 98.648,381.759 102.836,385.126 L258.414,385.70403 C261.45,385.714 263.921,383.262 263.932,380.226 L263.969044,370.332 C263.981,367.294 261.529,364.824 258.491,364.813 L102.913,364.235979 C99.877,364.225 101.354,368.484 101.343,371.52 L97.3589179,379.609" id="Fill-114" fill="#44AEB6"></path>
            <path d="M263.948,375.829 L263.932,380.226 C263.921,383.262 261.45,385.714 258.414,385.70403 L102.836,385.126 C99.799,385.115 97.375,375.21 97.375,375.21 L263.948,375.829" id="Fill-115" fill="#3B9C9F"></path>
            <path d="M241.942963,380.144 L241.98,370.249 C241.99,367.212 244.461,364.761 247.497,364.771963 L258.491,364.813 C261.529,364.824 263.981,367.294 263.969044,370.332 L263.932,380.226 C263.921,383.262 261.45,385.714 258.414,385.70403 L247.42,385.663 C244.383,385.652 241.932,383.181 241.942963,380.144" id="Fill-116" fill="#225E9B"></path>
            <polyline id="Fill-117" fill="#EBEBEA" points="245.771 385.657 238.074 385.628 238.151 364.738 245.849 364.766 245.771 385.657"></polyline>
            <polyline id="Fill-118" fill="#1B2441" points="87.527 373.108 83.138 374.974 87.692 376.849 89.123 375.18 87.527 373.108"></polyline>
            <path d="M87.692,376.849 C87.902,376.332 88.021,375.768 88.024,375.176 C88.024,375.119 88.016,375.064 88.013,375.007 C88.002,374.668 87.954,374.339 87.873,374.024 C87.868,374.004 87.861,373.986 87.856,373.966 C87.818,373.829 87.777,373.693 87.727,373.562 C87.668,373.407 87.602,373.254 87.527,373.108 L102.161,364.233 L102.084,385.124 L87.692,376.849" id="Fill-119" fill="#EBEBEA"></path>
            <path d="M435.288,266.232 C435.288,266.232 434.467,267.413 430.516,268.496 C429.646,268.734 428.705,268.904 428.732,270.345 C430.585,270.312 432.651,270.275 432.651,270.275 L436.646,269.509 L436.658,270.202 L438.822,270.163 C438.822,270.163 439.361,266.613 438.089,266.181 C436.918,266.203 435.288,266.232 435.288,266.232" id="Fill-120" fill="#161918"></path>
            <path d="M435.037,263.693 L435.288,266.232 C436.088,266.765 437.126,266.781 437.942,266.273 L438.089,266.181 L438.043,263.639 L435.037,263.693" id="Fill-121" fill="#F0AB85"></path>
            <path d="M455.4,266.375 C455.4,266.375 454.578,267.556 450.626,268.639 C449.757,268.877 448.817,269.046 448.843,270.489 C450.697,270.455 452.762,270.417 452.762,270.417 L456.757,269.652 L456.769,270.345 L458.934,270.306 C458.934,270.306 459.472,266.755 458.199,266.325 C457.029,266.345 455.4,266.375 455.4,266.375" id="Fill-122" fill="#2E3130"></path>
            <path d="M455.148,263.836 L455.4,266.375 C456.199,266.908 457.237,266.924 458.053,266.416 L458.199,266.325 L458.154,263.782 L455.148,263.836" id="Fill-123" fill="#F0AB85"></path>
            <path d="M432.309,201.241 L434.441,265.084 L439.093,265 C439.093,265 445.242,213.313 443.507,201.039 C441.773,188.763 432.309,201.241 432.309,201.241" id="Fill-124" fill="#161918"></path>
            <path d="M437.227,201.138 C437.227,201.138 439.201,220.727 443.117,231.518 C447.034,242.311 454.159,264.728 454.159,264.728 L458.975,264.64 C458.975,264.64 450.081,217.688 451.616,200.877 L437.227,201.138" id="Fill-125" fill="#2E3130"></path>
            <path d="M432.445,168.709 C432.445,168.709 426.953,182.185 425.498,182.211 C424.334,182.232 425.737,171.284 425.737,171.284 L420.935,171.371 C420.935,171.371 415.235,190.195 420.099,193.528 C424.963,196.86 435.277,183.572 435.277,183.572 L432.445,168.709" id="Fill-126" fill="#3C6BA6"></path>
            <path d="M450.162,202.602 L448.503,206.93 C447.696,208.633 444.622,208.731 442.57,208.232 C442.262,208.158 442.148,207.778 442.357,207.54 C443.456,206.29 446.31,203.085 447.306,202.362 L450.162,202.602" id="Fill-127" fill="#F0AB85"></path>
            <path d="M437.143,165.829 C435.269,165.88 433.498,166.841 432.572,168.471 C432.248,169.04 432.029,169.668 432.04,170.315 C432.082,172.644 432.6,201.221 432.6,201.221 L450.147,200.904 L449.624,172.009 C449.624,172.009 449.149,165.59 442.868,165.704 C440.195,165.752 438.363,165.795 437.143,165.829" id="Fill-128" fill="#32609D"></path>
            <polyline id="Fill-129" fill="#2E679E" points="432.891 201.23 432.389 173.472 431.807 173.502 432.309 201.241 432.891 201.23"></polyline>
            <path d="M443.452,159.794 L441.709,166.873 C441.709,166.873 440.134,168.199 438.008,167.675 C435.882,167.151 436.26,165.619 436.26,165.619 L437.377,161.082 L440.726,161.037 L443.452,159.794" id="Fill-130" fill="#EC967C"></path>
            <path d="M436.775,162.36 C436.125,162.179 435.545,161.922 435.297,161.561 C434.151,158.087 438.298,150.506 438.298,150.506 L444.847,153.422 L443.727,158.911 C443.428,160.376 442.449,161.611 441.092,162.238 C439.693,162.686 438.19,162.754 436.775,162.36" id="Fill-131" fill="#F0AB85"></path>
            <path d="M441.589,152.77 C441.589,152.77 439.21,152.636 436.922,151.621 C434.635,150.606 436.815,148.347 436.815,148.347 C436.815,148.347 438.387,149.592 441.648,149.901 C443.849,150.111 444.522,149.839 445.704,150.9 C447.311,152.343 446.04,155.577 446.04,155.577 L443.277,162.4 L442.895,162.306 C442.895,162.306 443.837,158.076 444.19,156.644 C443.95,155.893 443.517,155.786 443.143,155.867 C442.737,155.955 442.435,156.296 442.335,156.699 L440.527,164.045 C440.527,164.045 435.352,164.909 434.251,164.25 C433.151,163.592 435.287,158.345 435.287,158.345 C435.287,158.345 436.807,158.087 437.576,159.54 C438.339,160.979 439.92,160.067 439.92,160.067 L441.589,152.77" id="Fill-132" fill="#2E3130"></path>
            <path d="M421.857,171.354 L422.009,170.429 C422.347,168.38 424.252,165.805 426.206,165.103 L428.245,165.066 L427.693,169.433 L424.848,171.3 L421.857,171.354" id="Fill-133" fill="#F0AB85"></path>
            <path d="M443.782,155.829 C443.268,155.655 442.639,156.034 442.378,156.675 C442.117,157.315 442.323,157.975 442.838,158.147 C443.353,158.321 443.982,157.942 444.242,157.301 C444.503,156.661 444.297,156.002 443.782,155.829" id="Fill-134" fill="#F0AB85"></path>
            <path d="M426.844,168.965 L422.914,171.335 C422.914,171.335 425.405,171.265 425.446,171.289 L429.586,167.696 C429.586,167.696 429.271,167.087 428.327,167.623 C427.384,168.159 426.844,168.965 426.844,168.965" id="Fill-135" fill="#F0AB85"></path>
            <path d="M447.675,167.552 C447.675,167.552 457.795,178.393 457.914,184.999 C458.034,191.604 450.192,203.391 450.192,203.391 L446.194,202.299 C446.194,202.299 449.523,187.827 449.453,183.995 C449.384,180.163 441.909,174.677 441.909,174.677" id="Fill-136" fill="#3C6BA6"></path>
            <path d="M449.162,184 C449.222,187.3 446.52,199.416 445.884,202.239 C446.086,202.289 446.17,202.303 446.477,202.376 C447.257,198.889 449.803,187.233 449.744,183.99 C449.673,180.059 442.391,174.67 442.081,174.442 L441.737,174.912 C441.811,174.966 449.097,180.354 449.162,184" id="Fill-137" fill="#2E679E"></path>
            <path d="M429.32,162.332 C429.32,162.332 429.68,166.665 426.694,169.794 C426.509,169.987 426.216,170.117 425.912,170.125 C425.295,170.142 424.891,169.882 424.571,169.753 C424.102,169.563 423.898,169.291 423.809,169.073 C423.734,168.887 423.783,168.68 423.928,168.507 C424.544,167.772 426.479,165.225 425.988,162.735 C427.508,161.755 429.32,162.332 429.32,162.332" id="Fill-138" fill="#4DA791"></path>
            <path d="M424.224,169.566 C423.939,169.383 423.891,169.275 423.809,169.073 C423.734,168.887 423.783,168.68 423.928,168.507 C424.544,167.772 426.479,165.225 425.988,162.735 C426.526,162.389 427.098,162.239 427.615,162.187 C427.416,164.843 426.659,166.552 424.224,169.566" id="Fill-139" fill="#409A84"></path>
            <path d="M426.604,165.583 C426.414,166.177 426.07,166.599 425.837,166.524 C425.604,166.449 425.569,165.907 425.758,165.312 C425.947,164.718 426.291,164.297 426.525,164.372 C426.759,164.446 426.794,164.989 426.604,165.583" id="Fill-140" fill="#4DA791"></path>
            <polyline id="Fill-141" fill="#4DA791" points="426.57 164.394 426.325 164.308 426.33 164.436 426.491 164.52 426.57 164.394"></polyline>
            <polyline id="Fill-142" fill="#DC3F5E" points="425.894 166.532 425.596 166.44 425.947 166.427 425.894 166.532"></polyline>
            <path d="M426.404,165.519 C426.215,166.114 425.871,166.535 425.638,166.46 C425.404,166.386 425.368,165.843 425.559,165.249 C425.748,164.655 426.092,164.233 426.325,164.308 C426.559,164.383 426.595,164.925 426.404,165.519" id="Fill-143" fill="#37937D"></path>
            <path d="M430.769,158.869 L431.237,158.918 C432.13,159.014 432.787,159.79 432.696,160.641 L432.565,161.871 C432.474,162.723 431.667,163.341 430.773,163.245 L430.306,163.195 L430.769,158.869" id="Fill-144" fill="#1A8067"></path>
            <path d="M416.341,158.556 C415.982,161.913 416.462,164.716 417.414,164.818 C418.366,164.92 419.429,162.282 419.788,158.925 C420.148,155.568 419.667,152.764 418.715,152.663 C417.764,152.561 416.7,155.199 416.341,158.556" id="Fill-145" fill="#1A8067"></path>
            <polyline id="Fill-146" fill="#FFFFFE" points="420.104 156.693 418.647 157.434 418.437 159.4 419.704 160.825 420.464 158.32 420.104 156.693"></polyline>
            <path d="M419.788,158.925 C420.09,156.104 419.798,153.681 419.132,152.916 C419.132,152.916 419.135,152.914 419.136,152.912 C424.404,157.644 431.036,158.941 431.036,158.941 L430.577,163.231 C430.577,163.231 421.579,161.753 417.878,164.663 C417.876,164.663 417.875,164.661 417.873,164.66 C418.687,164.056 419.487,161.748 419.788,158.925" id="Fill-147" fill="#5BBBA4"></path>
            <path d="M418.356,158.393 C418.298,158.938 418.334,159.389 418.437,159.4 C418.539,159.411 418.67,158.978 418.729,158.433 C418.786,157.887 418.75,157.436 418.648,157.425 C418.545,157.415 418.414,157.848 418.356,158.393" id="Fill-148" fill="#5BBBA4"></path>
            <path d="M424.007,168.151 C424.148,168.201 424.645,168.501 426.232,168.473 C427.386,168.452 427.88,167.023 428.064,166.248 C428.128,165.975 428.183,165.587 427.84,165.42 L425.98,165.196 L425.755,165.532 L424.007,168.151" id="Fill-149" fill="#F0AB85"></path>
            <path d="M149.104,267.605 C148.746,268.395 148.692,269.29 148.952,270.118 L149.411,273.378 L149.971,273.755 L152.056,274.616 C151.832,273.975 152.056,273.31 152.056,273.31 L152.971,269.938 C152.971,269.938 154.395,264.246 150.531,264.489 C150.551,259.853 149.259,260.619 149.259,260.619 L149.104,267.605" id="Fill-150" fill="#F0AB85"></path>
            <path d="M139.489,278.877 C139.489,278.877 142.191,289.188 144.494,289.373 C146.799,289.557 149.195,273.039 149.195,273.039 L152.328,273.417 C152.328,273.417 153.545,297.171 146.517,297.603 C139.489,298.036 138.561,292.783 138.561,292.783 L139.489,278.877" id="Fill-151" fill="#4071AA"></path>
            <path d="M139.195,307.068 L120.809,307.068 C120.809,307.068 120.809,293.659 120.809,279.143 C126.062,271.126 132.609,273.31 132.609,273.31 C132.609,273.31 138.561,273.417 139.489,278.877 C139.489,282.83 139.195,307.068 139.195,307.068" id="Fill-152" fill="#32609D"></path>
            <path d="M130.46,269.601 L130.188,273.549 L130.317,273.672 C131.612,274.905 133.638,274.934 134.968,273.738 L135.03,270.767 L130.46,269.601" id="Fill-153" fill="#EC967C"></path>
            <path d="M129.016,261.353 L129.348,267.879 C129.998,267.853 130.379,268.549 130.255,269.161 C130.322,269.308 130.36,269.473 130.363,269.641 C131.49,270.448 133.538,271.5 136.178,270.995 C140.308,270.205 137.816,262.221 137.816,262.221 L129.016,261.353" id="Fill-154" fill="#F0AB85"></path>
            <path d="M126.94,266.254 C126.909,265.776 126.257,264.761 125.894,264.448 C123.556,262.424 125.647,260.95 126.389,260.473 C127.209,259.946 127.048,258.458 128.111,257.625 C129.733,256.356 131.297,257.672 132.335,257.48 C133.374,257.288 134.019,255.906 135.53,256.637 C137.04,257.37 136.874,258.555 137.358,259.055 C137.842,259.556 138.732,258.173 140.205,259.753 C142.446,262.157 138.051,263.184 138.051,263.184 C138.051,263.184 135.646,264.18 132.461,262.93 C132.024,262.759 131.505,262.854 131.229,263.233 C130.468,264.272 130.459,269.716 130.459,269.716 L129.397,268.833 C129.397,268.833 127.081,268.447 126.94,266.254" id="Fill-155" fill="#2E3130"></path>
            <path d="M129.417,266.789 C129.627,267.301 130.212,267.546 130.724,267.336 C131.236,267.127 131.482,266.541 131.272,266.03 C131.062,265.518 130.477,265.272 129.965,265.482 C129.453,265.692 129.208,266.277 129.417,266.789" id="Fill-156" fill="#F0AB85"></path>
            <path d="M135.028,359.721 C135.028,359.721 136.065,361.155 140.949,362.399 C142.025,362.673 143.184,362.86 143.184,364.634 C140.903,364.634 138.362,364.634 138.362,364.634 L133.432,363.782 L133.432,364.634 L130.77,364.634 C130.77,364.634 130.028,360.28 131.583,359.721 C133.024,359.721 135.028,359.721 135.028,359.721" id="Fill-157" fill="#1B2441"></path>
            <path d="M135.281,356.593 L135.028,359.721 C134.056,360.394 132.781,360.437 131.766,359.831 L131.583,359.721 L131.583,356.593 L135.281,356.593" id="Fill-158" fill="#F0AB85"></path>
            <path d="M121.331,359.721 C121.331,359.721 122.367,361.155 127.252,362.399 C128.327,362.673 129.487,362.86 129.487,364.634 C127.206,364.634 124.665,364.634 124.665,364.634 L119.735,363.782 L119.735,364.634 L117.072,364.634 C117.072,364.634 116.331,360.28 117.886,359.721 C119.326,359.721 121.331,359.721 121.331,359.721" id="Fill-159" fill="#1B2441"></path>
            <path d="M121.584,356.593 L121.331,359.721 C120.36,360.394 119.084,360.437 118.069,359.831 L117.886,359.721 L117.886,356.593 L121.584,356.593" id="Fill-160" fill="#F0AB85"></path>
            <path d="M120.821,279.143 C120.821,279.143 115.31,291.861 122.342,298.359 C129.374,304.856 138.919,303.749 138.919,303.749 L138.919,300.086 C138.919,300.086 130.291,299.357 127.526,293.589 C124.761,287.821 128.632,282.83 128.632,282.83" id="Fill-161" fill="#32609D"></path>
            <path d="M138.356,303.248 L142.757,303.339 C144.544,303.241 145.734,300.573 146.03,298.588 C146.074,298.291 145.782,298.054 145.497,298.153 C144.004,298.671 140.162,300.032 139.168,300.648 L138.356,303.248" id="Fill-162" fill="#F0AB85"></path>
            <path d="M139.195,307.068 C144.679,322.551 136.108,356.834 136.108,356.834 L131.223,356.834 C131.223,356.834 133.528,308.219 127.168,307.068 C136.888,307.068 135.03,307.068 139.195,307.068" id="Fill-163" fill="#000105"></path>
            <path d="M126.544,289.742 C126.601,290.947 126.882,292.247 127.526,293.589 C130.291,299.357 139.368,300.122 139.368,300.122 L139.368,303.821 C139.368,303.821 129.374,304.856 122.342,298.359 C119.793,296.002 118.896,292.83 118.784,289.742 L126.544,289.742" id="Fill-164" fill="#4071AA"></path>
            <path d="M126.587,290.299 C126.394,290.212 126.2,290.128 126.009,290.038 C125.677,285.775 128.17,282.561 128.202,282.521 L128.635,282.865 C128.604,282.904 126.122,286.11 126.587,290.299" id="Fill-165" fill="#4071AA"></path>
            <path d="M149.948,268.094 C149.948,268.094 148.934,267.79 148.775,265.939 C148.616,264.088 147.742,264.661 147.742,264.661 C147.742,264.661 148.197,271.958 149.36,272.232 C150.524,272.505 149.948,268.094 149.948,268.094" id="Fill-166" fill="#F0AB85"></path>
            <path d="M133.788,307.068 C135.281,326.053 123.159,356.834 123.159,356.834 L117.353,356.834 C117.353,356.834 121.299,337.152 121.379,318.679 C121.397,314.681 121.233,310.741 120.809,307.068 C124.818,307.068 130.149,307.068 133.788,307.068" id="Fill-167" fill="#151918"></path>
            <path d="M9.385,366.012 L11.604,371.883 C11.789,372.705 11.82,373.687 10.973,374.173 C10.973,374.173 10.412,374.5 9.81,374.708 C9.405,374.622 6.845,366.693 6.845,366.693 L6.87,366.645 C7.885,365.321 9.385,366.012 9.385,366.012" id="Fill-168" fill="#21837F"></path>
            <polyline id="Fill-169" fill="#1B2441" points="9.81 374.708 6.845 366.693 6.456 366.918 9.442 374.859 9.81 374.708"></polyline>
            <polyline id="Fill-170" fill="#FFFFFE" points="10.269 368.333 10.464 368.865 9.44 369.061 9.247 368.548 10.269 368.333"></polyline>
            <polyline id="Fill-171" fill="#FFFFFE" points="10.696 369.468 10.89 369.999 9.867 370.196 9.674 369.683 10.696 369.468"></polyline>
            <path d="M11.846,364.626 L9.385,366.012 C9.244,366.603 9.455,367.223 9.928,367.606 L10.014,367.675 L12.73,366.976 L11.846,364.626" id="Fill-172" fill="#F0AB85"></path>
            <path d="M31.493,327.578 C31.493,327.578 29.053,330.207 28.424,334.833 C28.006,337.911 29.158,342.789 29.284,346.617 C29.4,350.117 27.82,352.898 25.046,355.036 L11.846,364.626 L12.73,366.976 C12.73,366.976 30.796,364.267 35.539,356.176 C40.282,348.084 41.407,329.768 41.407,329.768 L31.493,327.578" id="Fill-173" fill="#161918"></path>
            <path d="M20.984,317.608 L14.195,332.767 C14.195,332.767 11.405,333.092 10.196,334.163 C9.564,334.721 9.593,335.839 9.764,336.779 C9.894,337.491 10.751,337.793 11.297,337.319 C12.043,336.67 13.006,335.941 13.637,335.836 C15.311,335.557 15.813,334.372 15.813,334.372 L25.552,319.096 L20.984,317.608" id="Fill-174" fill="#F0AB85"></path>
            <path d="M55.218,287.121 L58.697,284.146 L55.999,269.453 L51.814,267.313 C51.814,267.313 52.27,266.504 53.302,266.848 C54.335,267.192 55.209,266.988 55.209,266.988 C55.209,266.988 55.992,266.018 54.508,265.364 C53.674,264.802 53.116,265.36 50.698,265.267 C50.698,264.895 53.884,264.012 53.884,264.012 C54.878,263.692 57.414,265.657 57.414,265.657 C57.585,265.889 57.695,266.161 57.737,266.446 L58.138,269.173 C58.138,269.173 63.532,283.962 63.532,285.541 C63.532,287.121 60.51,289.284 60.51,289.284 L55.218,287.121" id="Fill-175" fill="#F0AB85"></path>
            <path d="M36.516,329.103 C36.516,329.103 34.423,331.624 35.678,337.483 C36.48,341.223 40,345.929 42.364,349.17 C44.058,351.495 44.094,354.417 43.585,357.249 C41.649,368.009 44.746,381.147 44.746,381.147 L47.257,381.147 C47.257,381.147 51.024,361.895 52.14,348.364 C53.146,336.163 47.925,327.177 47.815,327.02 L36.516,329.103" id="Fill-176" fill="#2E3130"></path>
            <polyline id="Fill-177" fill="#1F847F" points="50.434 266.785 58.32 267.942 58.626 265.858 50.74 264.701 50.434 266.785"></polyline>
            <polyline id="Fill-178" fill="#FFFFFE" points="59.081 265.924 58.775 268.008 58.055 267.903 58.361 265.819 59.081 265.924"></polyline>
            <path d="M58.623,267.986 C59.201,268.067 59.688,268.028 59.826,267.085 C59.977,266.056 59.509,265.965 58.933,265.877 L58.623,267.986" id="Fill-179" fill="#1F847F"></path>
            <polyline id="Fill-180" fill="#FFFFFE" points="50.434 266.785 48.904 265.865 49.015 265.106 50.74 264.701 50.434 266.785"></polyline>
            <polyline id="Fill-181" fill="#131615" points="48.904 265.865 48.238 265.385 49.015 265.106 48.904 265.865"></polyline>
            <polyline id="Fill-182" fill="#29B2AA" points="58.171 267.108 58.102 267.582 50.481 266.463 50.551 265.99 58.171 267.108"></polyline>
            <polyline id="Fill-183" fill="#29B2AA" points="58.319 266.103 58.249 266.577 50.628 265.459 50.698 264.985 58.319 266.103"></polyline>
            <path d="M30.353,299.358 C25.867,302.654 20.586,318.499 20.586,318.499 L24.525,320.708 L30.935,311.911 C30.935,311.911 31.561,322.095 30.026,329.908 C30.724,332.837 34.051,332.507 39.446,331.484 C44.839,330.461 48.373,328.136 48.373,328.136 C48.373,328.136 48.606,314.005 49.303,306.513 C50.001,299.021 48.624,298.22 50.512,298.468 C54.726,296.076 61.632,288.369 61.632,288.369 L55.218,287.121 L41.407,295.212 C41.407,295.212 34.654,296.993 30.353,299.358" id="Fill-184" fill="#1BAE90"></path>
            <path d="M38.178,280.617 L41.51,283.908 C42.925,285.304 43.522,287.331 43.09,289.272 L42.7,291.029 L38.178,280.617" id="Fill-185" fill="#F0AB85"></path>
            <path d="M34.144,279.372 C26.053,279.372 29.494,294.904 29.494,294.904 C29.494,294.904 30.935,304.979 34.144,309.024 C36.921,312.526 42.416,311.472 45.019,309.791 C46.291,308.97 47.716,308.422 49.22,308.242 C51.424,307.976 54.047,307.002 54.047,303.026 C54.047,299.283 49.577,296.387 46.636,294.32 C44.72,292.972 43.382,290.957 42.824,288.681 C41.882,284.849 39.586,279.372 34.144,279.372" id="Fill-186" fill="#2E3130"></path>
            <path d="M45.177,383.938 L51.454,383.928 C52.287,384.044 53.218,384.361 53.375,385.326 C53.375,385.326 53.484,385.965 53.465,386.602 C53.243,386.95 44.92,386.555 44.92,386.555 L44.884,386.516 C44.002,385.099 45.177,383.938 45.177,383.938" id="Fill-187" fill="#21837F"></path>
            <polyline id="Fill-188" fill="#13374D" points="53.465 386.602 44.92 386.555 44.994 386.999 53.477 386.999 53.465 386.602"></polyline>
            <polyline id="Fill-189" fill="#FFFFFE" points="47.661 383.928 48.227 383.933 48.05 384.96 47.503 384.96 47.661 383.928"></polyline>
            <polyline id="Fill-190" fill="#FFFFFE" points="48.873 383.928 49.439 383.933 49.262 384.96 48.714 384.96 48.873 383.928"></polyline>
            <path d="M44.746,381.147 L45.177,383.938 C45.681,384.278 46.335,384.298 46.86,383.991 L46.955,383.935 L47.257,381.147 L44.746,381.147" id="Fill-191" fill="#F0AB85"></path>
            <path d="M53.302,266.848 C52.27,266.504 51.814,267.313 51.814,267.313 L54.599,268.736 C54.637,268.72 54.675,268.701 54.714,268.685 C55.171,268.499 56.121,268.088 56.557,268.014 C56.293,267.749 53.818,267.02 53.302,266.848" id="Fill-192" fill="#F0AB85"></path>
            <polyline id="Fill-193" fill="#41AEB6" points="403.462 86.517 402.986 94.544 397.263 89.17 378.834 68.821 403.462 86.517"></polyline>
            <polyline id="Fill-194" fill="#277973" points="402.986 94.544 392.172 87.278 395.74 87.489 402.986 94.544"></polyline>
            <polyline id="Fill-195" fill="#88CEDC" points="403.462 86.517 408.954 81.64 378.834 68.821 403.462 86.517"></polyline>
            <polyline id="Fill-196" fill="#88CEDC" points="378.834 68.821 397.263 89.17 388.809 95.885 378.834 68.821"></polyline>
            <path d="M404.863,99.319 C404.941,99.324 405.019,99.314 405.096,99.288 C405.415,99.181 405.588,98.834 405.48,98.513 C405.139,97.503 404.707,96.526 404.195,95.613 C404.031,95.316 403.659,95.211 403.363,95.377 C403.069,95.542 402.963,95.915 403.128,96.21 C403.604,97.058 404.004,97.964 404.32,98.904 C404.403,99.147 404.622,99.305 404.863,99.319" id="Fill-197" fill="#AEDCE9"></path>
            <path d="M382.847,105.173 C381.767,103.624 380.05,102.39 378.254,101.87 C377.93,101.776 377.743,101.436 377.837,101.112 C377.931,100.788 378.271,100.603 378.595,100.694 C380.681,101.299 382.597,102.676 383.851,104.474 C384.043,104.75 383.976,105.132 383.698,105.325 C383.581,105.407 383.445,105.442 383.313,105.434 C383.133,105.423 382.958,105.333 382.847,105.173 Z M370.493,106.036 C370.17,105.941 369.984,105.601 370.079,105.277 C370.582,103.558 371.583,102.189 372.976,101.321 C373.48,101.007 374.028,100.768 374.603,100.608 C374.928,100.517 375.266,100.709 375.355,101.035 C375.445,101.36 375.254,101.697 374.929,101.787 C374.466,101.915 374.027,102.108 373.622,102.359 C372.474,103.076 371.677,104.174 371.252,105.621 C371.171,105.9 370.908,106.076 370.63,106.06 C370.584,106.057 370.539,106.049 370.493,106.036 Z M405.312,109.07 C404.981,109.002 404.767,108.68 404.833,108.349 C405.013,107.456 405.132,106.546 405.186,105.644 C405.25,104.553 405.22,103.458 405.096,102.393 C405.057,102.057 405.298,101.753 405.633,101.715 C405.971,101.674 406.273,101.915 406.311,102.252 C406.444,103.388 406.476,104.554 406.406,105.716 C406.35,106.675 406.224,107.643 406.032,108.591 C405.971,108.894 405.697,109.098 405.398,109.081 C405.369,109.079 405.341,109.076 405.312,109.07 Z M385.265,114.272 C385.161,111.848 384.873,109.962 384.36,108.341 C384.257,108.018 384.436,107.674 384.757,107.573 C385.078,107.472 385.423,107.649 385.526,107.971 C386.073,109.699 386.378,111.685 386.487,114.22 C386.502,114.558 386.24,114.843 385.903,114.857 C385.881,114.858 385.861,114.858 385.84,114.857 C385.53,114.838 385.279,114.589 385.265,114.272 Z M371.888,115.22 C371.588,114.751 371.313,114.266 371.068,113.777 C370.358,112.361 369.903,110.771 369.753,109.18 C369.722,108.844 369.969,108.545 370.305,108.514 C370.64,108.482 370.94,108.729 370.971,109.066 C371.107,110.507 371.518,111.947 372.161,113.228 C372.388,113.68 372.642,114.129 372.918,114.562 C373.101,114.847 373.017,115.225 372.732,115.407 C372.619,115.479 372.491,115.509 372.367,115.502 C372.178,115.491 371.997,115.392 371.888,115.22 Z M400.82,117.764 C400.562,117.546 400.53,117.16 400.748,116.902 C402.018,115.405 403.046,113.686 403.806,111.79 C403.931,111.477 404.288,111.323 404.601,111.45 C404.915,111.576 405.067,111.932 404.941,112.245 C404.132,114.263 403.035,116.096 401.682,117.693 C401.553,117.846 401.363,117.919 401.179,117.908 C401.051,117.9 400.925,117.853 400.82,117.764 Z M379.521,121.826 C377.55,120.887 375.795,119.667 374.305,118.199 C374.064,117.961 374.061,117.575 374.298,117.333 C374.536,117.092 374.924,117.09 375.162,117.327 C376.556,118.7 378.199,119.841 380.047,120.721 C380.352,120.867 380.481,121.231 380.336,121.537 C380.226,121.768 379.988,121.898 379.747,121.884 C379.671,121.88 379.594,121.86 379.521,121.826 Z M392.445,122.736 C392.355,122.411 392.545,122.074 392.871,121.984 C394.066,121.655 395.207,121.191 396.262,120.608 C396.92,120.244 397.561,119.825 398.166,119.363 C398.434,119.159 398.819,119.209 399.024,119.479 C399.229,119.747 399.177,120.131 398.908,120.336 C398.256,120.834 397.565,121.286 396.855,121.678 C395.715,122.308 394.484,122.808 393.196,123.164 C393.13,123.182 393.064,123.188 392.997,123.185 C392.743,123.169 392.516,122.996 392.445,122.736 Z M385.674,124.737 C385.338,124.712 385.084,124.42 385.109,124.082 C385.121,123.912 385.133,123.74 385.144,123.568 C384.459,123.46 383.778,123.316 383.104,123.139 C382.778,123.052 382.583,122.718 382.669,122.391 C382.755,122.064 383.083,121.871 383.417,121.956 C384.01,122.113 384.61,122.241 385.214,122.341 C385.28,120.97 385.315,119.525 385.32,117.951 C385.321,117.614 385.596,117.34 385.934,117.341989 C386.267,117.341989 386.545,117.617 386.543,117.955 C386.538,119.586 386.501,121.082 386.43,122.502 C387.404,122.599 388.385,122.619 389.346,122.562 C389.687,122.54 389.973,122.8 389.993,123.137 C390.013,123.474 389.756,123.763 389.419,123.784 C388.408,123.843 387.38,123.822 386.36,123.724 C386.35,123.873 386.339,124.022 386.329,124.172 C386.304,124.505 386.017,124.757 385.683,124.738 C385.68,124.737 385.677,124.737 385.674,124.737 Z M383.967,134.46 C383.641,134.369 383.45,134.032 383.541,133.707 C384.051,131.87 384.453,129.86 384.737,127.734 C384.781,127.399 385.104,127.161 385.424,127.209 C385.759,127.253 385.994,127.561 385.949,127.895 C385.658,130.078 385.244,132.143 384.72,134.034 C384.641,134.317 384.376,134.498 384.095,134.481 C384.052,134.478 384.01,134.471 383.967,134.46 Z M379.747,143.349 C379.468,143.157 379.397,142.776 379.588,142.498 L379.741,142.269 C380.767,140.714 381.656,138.994 382.387,137.156 C382.511,136.842 382.868,136.686 383.181,136.814 C383.494,136.938 383.649,137.294 383.524,137.608 C382.763,139.522 381.834,141.317 380.763,142.943 L380.597,143.19 C380.471,143.374 380.263,143.467 380.056,143.454 C379.948,143.448 379.842,143.413 379.747,143.349 Z M372.36,149.802 C372.19,149.509 372.289,149.136 372.582,148.967 C374.32,147.961 375.909,146.722 377.31,145.283 C377.545,145.04 377.933,145.036 378.174,145.27 C378.416,145.506 378.422,145.894 378.187,146.136 C376.709,147.656 375.029,148.963 373.195,150.025 C373.087,150.088 372.968,150.113 372.853,150.106 C372.654,150.095 372.466,149.986 372.36,149.802 Z M362.878989,152.199 C362.877,151.861 363.151,151.587 363.488,151.585 C365.402,151.578 367.365,151.211 369.324,150.496 C369.641,150.382 369.993,150.542 370.109,150.86 C370.225,151.178 370.062,151.529 369.744,151.645 C367.652,152.409 365.548,152.801 363.492,152.808 C363.48,152.809 363.467,152.808 363.453,152.807 C363.134,152.788 362.88,152.523 362.878989,152.199 L362.878989,152.199 Z" id="Fill-198" fill="#AEDCE9"></path>
            <path d="M359.721,152.353 C360.007,152.371 360.275,152.183 360.349,151.895 C360.433,151.568 360.237,151.235 359.909,151.15 C358.964,150.907 358.047,150.56 357.183,150.116 C356.883,149.96 356.513,150.08 356.36,150.38 C356.205,150.681 356.323,151.049 356.624,151.203 C357.569,151.688 358.571,152.07 359.604,152.336 C359.643,152.345 359.682,152.352 359.721,152.353" id="Fill-199" fill="#AEDCE9"></path>
            <path d="M379.438,381.23 L370.805,381.22 C369.658,381.34 368.377,381.666 368.163,382.66 C368.163,382.66 368.013,383.319 368.038,383.975 C368.344,384.333 379.79,383.927 379.79,383.927 L379.84,383.886 C381.053,382.427 379.438,381.23 379.438,381.23" id="Fill-200" fill="#17324A"></path>
            <polyline id="Fill-201" fill="#113346" points="368.038 383.975 379.79 383.927 379.689 384.384 368.022 384.384 368.038 383.975"></polyline>
            <polyline id="Fill-202" fill="#FFFFFE" points="376.021 381.22 375.243 381.225 375.485 382.284 376.238 382.284 376.021 381.22"></polyline>
            <polyline id="Fill-203" fill="#FFFFFE" points="374.354 381.22 373.576 381.225 373.819 382.284 374.572 382.284 374.354 381.22"></polyline>
            <path d="M380.029,378.355 L379.438,381.23 C378.744,381.581 377.844,381.602 377.123,381.285 L376.992,381.227 L376.576,378.355 L380.029,378.355" id="Fill-204" fill="#F0AB85"></path>
            <path d="M399.613,381.23 L390.981,381.22 C389.835,381.34 388.554,381.666 388.339,382.66 C388.339,382.66 388.19,383.319 388.215,383.975 C388.52,384.333 399.967,383.927 399.967,383.927 L400.017,383.886 C401.23,382.427 399.613,381.23 399.613,381.23" id="Fill-205" fill="#113346"></path>
            <polyline id="Fill-206" fill="#1B2441" points="388.215 383.975 399.967 383.927 399.865 384.384 388.197 384.384 388.215 383.975"></polyline>
            <polyline id="Fill-207" fill="#FFFFFE" points="396.196 381.22 395.419 381.225 395.661 382.284 396.415 382.284 396.196 381.22"></polyline>
            <polyline id="Fill-208" fill="#FFFFFE" points="394.529 381.22 393.753 381.225 393.994 382.284 394.748 382.284 394.529 381.22"></polyline>
            <path d="M399.239,378.355 L399.613,381.23 C398.921,381.581 398.021,381.602 397.3,381.285 L397.168,381.227 L395.785,378.355 L399.239,378.355" id="Fill-209" fill="#F0AB85"></path>
            <path d="M386.357,281.655 L393.466,286.291 L391.272,291.909 C391.24,291.988 391.198,292.062 391.163,292.139 C391.007,292.129 390.852,292.12 390.694,292.12 C390.668,292.12 390.643,292.123 390.616,292.123 C390.592,292.123 390.568,292.12 390.542,292.12 C388.64,292.12 387.004,293.291 386.011,294.867 C384.86,294.78 383.716,294.5 382.654,293.996 C381.932,293.652 381.302,293.243 381.074,292.798 C380.313,288.814 386.357,281.655 386.357,281.655" id="Fill-210" fill="#F0AB85"></path>
            <path d="M377.314,283.108 C377.314,283.108 376.444,291.36 378.195,296.614 C377.382,297.321 374.394,300.523 373.454,296.373 C372.515,292.221 374.509,281.655 374.509,281.655 L377.314,283.108" id="Fill-211" fill="#F0AB85"></path>
            <polyline id="Fill-212" fill="#081922" points="381.579 282.524 383.251 283.6 382.654 284.849 380.861 284.058 381.579 282.524"></polyline>
            <path d="M382.565,284.026 C382.397,284.408 382.385,284.771 382.537,284.838 C382.691,284.906 382.95,284.65 383.117,284.268 C383.285,283.886 383.297,283.523 383.145,283.456 C382.991,283.388 382.732,283.644 382.565,284.026" id="Fill-213" fill="#081922"></path>
            <path d="M361.397,276.438 C361.396,276.422 361.392,276.407 361.391,276.391 C361.705,275.674 362.26,274.536 363.008,273.488 C364.217,271.796 364.562,270.95 364.562,270.95 L381.834,282.254 L380.716,284.366 L361.395,277.225 C361.412,276.961 361.418,276.699 361.397,276.438" id="Fill-214" fill="#14364D"></path>
            <polyline id="Fill-215" fill="#EC967C" points="387.925 294.87 388.546 298.749 383.05 298.749 382.654 293.996 387.925 294.87"></polyline>
            <path d="M373.731,304.496 C373.731,304.496 367.239,302.428 365.204,299.648 C363.17,296.869 366.613,281.655 366.613,281.655 L366.168,278.917 C365.918,277.375 367.1,275.973 368.661,275.959 L370.396,275.944951 C371.117,275.938 371.605,276.68 371.312,277.339 L369.03,282.472 C369.03,282.472 367.319,293.996 369.716,294.87 C372.575,295.889 375.813,296.134 375.813,296.134 L373.731,304.496" id="Fill-216" fill="#F0AB85"></path>
            <path d="M385.927,294.87 L387.597,291.166 L386.512,290.485 C385.711,289.982 385.361,288.994 385.665,288.098 L386.855,284.607 C386.855,284.607 383.472,284.193 383.574,281.041 C383.574,279.419 385.807,279.411 385.807,279.411 C385.807,279.411 386.475,280.861 388.546,281.033 C389.436,280.921 391.877,281.249 393.525,284.124 C394.633,286.057 394.147,289.086 393.183,291.36 C392.319,293.396 390.112,294.535 387.925,294.87 L385.927,294.87" id="Fill-217" fill="#2E3130"></path>
            <path d="M392.529,325.982 C392.529,325.982 392.183,333.878 390.476,342.438 C389.973,344.959 390.161,347.569 390.982,350.005 C394.859,361.522 400.293,378.838 400.293,378.838 L395.458,378.838 C395.458,378.838 384.505,358.373 381.683,348.22 C378.861,338.068 378.377,334.845 378.377,334.845 L381.736,325.982 L392.529,325.982" id="Fill-218" fill="#0A202A"></path>
            <path d="M388.495,289.441 C388.695,290.025 388.292,290.797 387.597,291.166 C386.902,291.536 386.177,291.362 385.978,290.778 C385.779,290.195 386.182,289.422 386.876,289.053 C387.571,288.684 388.296,288.858 388.495,289.441" id="Fill-219" fill="#F0AB85"></path>
            <path d="M376.766,325.982 L392.529,325.982 L392.529,305.759 C392.529,301.329 389.156,297.627 384.745,297.215 L373.784,295.889 C373.784,295.889 372.495,297.862 368.904,302.446 C373.22,305.114 378.216,306.341 378.216,306.341 L376.766,325.982" id="Fill-220" fill="#3983B8"></path>
            <path d="M392.529,325.982 C392.529,325.982 390.302,334.04 382.087,343.07 C380.716,344.434 378.74,347.271 379.022,351.282 L380.716,378.838 L375.813,378.838 C375.813,378.838 369.836,355.956 371.125,344.675 C372.414,333.395 376.766,325.982 376.766,325.982 L392.529,325.982" id="Fill-221" fill="#113346"></path>
            <path d="M364.042,274.564 C363.195,276.323 362.044,277.525 361.473,277.25 C360.902,276.975 361.126,275.326 361.974,273.567 C362.821,271.808 363.972,270.606 364.543,270.881 C365.114,271.157 364.89,272.805 364.042,274.564" id="Fill-222" fill="#081922"></path>
            <path d="M377.995,279.742 L377.849,279.812 C377.335,280.058 376.745,280.095 376.204,279.915 L376.107,279.882 C375.217,279.585 374.523,278.881 374.238,277.988 C374.112,277.59 374.46,277.204 374.868,277.29 L375.96,277.519 C376.386,277.608 376.758,277.862 376.997,278.224 L377.995,279.742" id="Fill-223" fill="#F0AB85"></path>
        </g>
    </g>
</svg>