<?xml version="1.0" encoding="UTF-8"?> <svg xmlns="http://www.w3.org/2000/svg" xmlns:xlink="http://www.w3.org/1999/xlink" width="246px" height="126px" viewBox="0 0 246 126" version="1.1"><!-- Generator: Sketch 63.1 (92452) - https://sketch.com --><title>Group 4 Copy</title><desc>Created with Sketch.</desc><g id="Page-1" stroke="none" stroke-width="1" fill="none" fill-rule="evenodd"><g id="Desktop---Small-Copy-5" transform="translate(-477.000000, -213.000000)" fill="#FFFFFF"><g id="Group" transform="translate(444.000000, 137.000000)"><g id="Group-4-Copy" transform="translate(33.000000, 76.000000)"><path d="M11.6280281,63 L11.6280281,37.5354 L19.0612139,37.5354 L35.4092212,63 L48,63 L30.4266736,35.7714 C39.6957541,33.3648 44.3302943,27.7263 44.3302943,18.8559 L44.3302943,18.5031 C44.3302943,12.2787 42.2318312,7.6398 38.0349049,4.5864 C33.8379786,1.533 28.1552488,0.0042 20.9867153,0 L0,0 L0,63 L11.6280281,63 Z M11.6280281,9.0783 L21.0054702,9.0783 C24.9064861,9.0783 27.882261,9.828 29.8765303,11.3211 C31.8707997,12.8142 32.8960667,15.3027 32.8960667,18.7677 L32.8960667,19.1205 C32.8960667,25.8195 28.9367023,29.1669 21.0179734,29.1627039 L11.6405314,29.1627039 L11.6405314,9.0783 L11.6280281,9.0783 Z" id="Shape" fill-rule="nonzero"></path><path d="M149.058517,34.2314685 C144.925643,37.4328671 139.361039,39.0335664 132.364704,39.0335664 L123.624488,39.0335664 L123.624488,63 L112,63 L112,0 L132.102497,0 C139.331905,0 145.000559,1.63006993 149.108461,4.89020979 C153.216362,8.15034965 155.270313,13.0111888 155.270313,19.4727273 L155.270313,19.8251748 C155.270313,26.2237762 153.189309,31.0258741 149.027302,34.2314685 L149.058517,34.2314685 Z M143.901789,19.4727273 C143.901789,12.5454545 139.968692,9.07972028 132.102497,9.07552448 L123.624488,9.07552448 L123.624488,30.5748252 L132.102497,30.5748252 C135.948192,30.5748252 138.876165,29.6496503 140.886414,27.7993007 C142.896664,25.948951 143.901789,23.2909091 143.901789,19.8251748 L143.901789,19.4727273 L143.901789,19.4727273 Z M166.894801,63 L166.894801,0 L178.60669,0 L178.60669,63 L166.894801,63 Z M237.696795,54.4531469 C232.157162,60.151049 224.084948,63 213.480153,63 L194.682445,63 L194.682445,0 L213.648714,0 C224.257672,0 232.300752,2.77552448 237.777954,8.32657343 C243.255156,13.8776224 245.995838,21.3818182 246,30.8391608 L246,31.6321678 C246,41.1482517 243.232265,48.7552448 237.696795,54.4531469 Z M233.8511,31.0153846 C233.8511,16.4895105 226.915114,9.22657343 213.043142,9.22657343 L206.313176,9.22657343 L206.313176,53.7230769 L213.130544,53.7230769 C220.010343,53.7230769 225.183718,51.834965 228.650671,48.0587413 C232.117623,44.2825175 233.8511,38.827972 233.8511,31.6951049 L233.8511,31.0153846 L233.8511,31.0153846 Z" id="Shape" fill-rule="nonzero"></path><path d="M21.9566502,104.123077 C19.3227074,106.153846 15.79368,107.169231 11.3695682,107.169231 L3.34801502,107.169231 L3.34801502,126 L0,126 L0,82 L11.3011541,82 C15.7281165,82 19.2656956,83.0051282 21.9138914,85.0153846 C24.5620872,87.025641 25.8890357,90.1435897 25.8947368,94.3692308 L25.8947368,94.6153846 C25.8947368,98.9230769 24.5791907,102.092308 21.9480984,104.123077 L21.9566502,104.123077 Z M22.9068826,94.2566465 C22.9068826,90.9490869 21.914849,88.5780049 19.9307819,87.1434007 C17.9467148,85.7087965 15.1081092,84.9943409 11.4149649,85 L2.98785425,85 L2.98785425,104 L11.5480245,104 C19.1146828,104 22.8980119,100.831916 22.8980119,94.4957472 L22.8980119,94.2566465 L22.9068826,94.2566465 Z M37.8461538,125 L37.8461538,78 L40.8340081,78 L40.8340081,124.982634 L37.8461538,125 Z M73.4436542,125.527697 L73.4436542,120.612245 C71.1115033,124.204082 67.5024997,126 62.6166436,126 C59.3545475,126 56.7308778,125.214286 54.7456343,123.642857 C52.7603909,122.071429 51.7750571,119.816327 51.7894737,116.877551 C51.7894737,113.44898 53.1758052,110.979592 55.9481496,109.469388 C58.720494,107.959184 62.3280399,107.204082 66.7707874,107.204082 L73.4392814,107.204082 L73.4392814,104.326531 C73.4392814,101.346939 72.7964823,99.1734694 71.5108841,97.8061224 C70.2252859,96.4387755 68.1773659,95.755102 65.3671241,95.755102 C60.064396,95.755102 57.0675821,98.0204082 56.3766823,102.55102 L53.2151603,102.55102 C53.5766437,99.3673469 54.9015969,96.9795918 57.19002,95.3877551 C59.478443,93.7959184 62.2478722,93 65.4983076,93 C72.9582753,93 76.6882591,96.7755102 76.6882591,104.326531 L76.6882591,125.510204 L73.4436542,125.527697 Z M73.7004049,110.017937 L67.3176163,110.017937 C65.3311169,109.982321 63.3467363,110.171749 61.3986437,110.58296 C59.8815358,110.903577 58.4857926,111.682653 57.3817421,112.825112 C56.3094336,113.955157 55.7732794,115.461883 55.7732794,117.345291 C55.7732794,121.781764 58.3122108,124 63.3900737,124 C66.2892781,124 68.7289218,123.204783 70.7090046,121.61435 C72.6890875,120.023916 73.6819657,118.014948 73.6876393,115.587444 L73.6876393,110 L73.7004049,110.017937 Z M99.5018606,123.226629 C100.888839,123.223117 102.265954,122.994228 103.578947,122.548981 L103.578947,125.321177 C102.20771,125.789333 100.765736,126.018571 99.3163377,125.998825 C96.7631891,125.998825 94.8078365,125.280107 93.45028,123.842673 C92.0927234,122.405238 91.4110004,120.386962 91.4051107,117.787845 L91.4051107,96.1031135 L86.6477733,96.1031135 L86.6477733,93.3309177 L91.4051107,93.3309177 L91.4051107,86 L94.6782649,86 L94.6782649,93.3309177 L103.141643,93.3309177 L103.141643,96.1031135 L94.6782649,96.1031135 L94.6782649,117.541428 C94.6782649,121.322761 96.2846577,123.211961 99.4974434,123.209028 L99.5018606,123.226629 Z M124.138927,80.7514728 C122.355504,80.7514728 120.947763,81.2965758 119.915703,82.386782 C118.883643,83.4769882 118.370448,85.1238341 118.376119,87.3273196 L118.376119,93.3234536 L127.060735,93.3234536 L127.060735,96.0489691 L118.376119,96.0489691 L118.376119,125 L115.228902,125 L115.228902,96.0489691 L110.550607,96.0489691 L110.550607,93.3234536 L115.228902,93.3234536 L115.228902,87.6301546 C115.228902,84.4402921 116.022795,82.0378007 117.610579,80.4226804 C119.198364,78.8075601 121.339039,78 124.032602,78 C125.202841,78.0028602 126.365852,78.1866608 127.481781,78.5451031 L127.481781,81.2706186 C126.408201,80.9062321 125.283448,80.7221214 124.151686,80.7255155 L124.138927,80.7514728 Z M160.864838,121.438006 C157.996484,124.431947 154.003549,126.085598 149.857904,125.996464 C145.715978,126.087425 141.729337,124.420002 138.88594,121.407412 C135.930941,118.348044 134.453441,114.472845 134.453441,109.781814 L134.453441,109.279204 C134.453441,104.544468 135.94114,100.648872 138.916539,97.5924182 C141.773503,94.5810472 145.768686,92.9146991 149.919102,93.0033664 C154.322458,93.0033664 157.991436,94.5126545 160.926036,97.5312309 C163.860635,100.549807 165.327935,104.445402 165.327935,109.218016 L165.327935,109.707515 C165.327935,114.480129 163.841693,118.385922 160.869209,121.424894 L160.864838,121.438006 Z M161.34413,109.289828 C161.34413,105.238055 160.214712,102.010953 157.955977,99.6085231 C155.713588,97.2975421 152.618656,95.9943438 149.386232,96 C146.153808,96.0056931 143.063539,97.3197496 140.829398,99.6385892 C138.570663,102.06679 137.441296,105.28387 137.441296,109.289828 L137.441296,109.770887 C137.441296,113.739621 138.560567,116.936657 140.799109,119.361994 C143.037651,121.787331 145.912274,123 149.422977,123 C152.88464,123 155.73907,121.797353 157.986266,119.39206 C160.233463,116.986767 161.352734,113.779709 161.34413,109.770887 L161.34413,109.276943 L161.34413,109.289828 Z M179.491752,107.497642 L179.491752,125 L176.283401,125 L176.283401,93.4224707 L179.496087,93.4224707 L179.496087,100.061296 C181.556947,95.5147065 185.133825,93.1609412 190.226721,93 L190.226721,96.0176479 C183.072965,96.3050429 179.496087,100.127397 179.496087,107.48471 L179.491752,107.497642 Z M242.794733,125.995564 L242.794733,105.486739 C242.794733,102.132927 242.133601,99.6900272 240.811339,98.1580391 C239.489076,96.6260511 237.522892,95.860057 234.912786,95.860057 C232.37487,95.8372394 229.927846,96.8331453 228.089224,98.6371551 C226.144551,100.476724 225.172215,102.990604 225.172215,106.178795 L225.172215,125.991127 L221.979855,125.991127 L221.979855,105.486739 C221.979855,102.132927 221.318723,99.6900272 219.996461,98.1580391 C218.674198,96.6260511 216.705146,95.860057 214.089304,95.860057 C211.552871,95.8383938 209.107593,96.8342171 207.270043,98.6371551 C205.325371,100.476724 204.353035,102.990604 204.353035,106.178795 L204.353035,125.991127 L201.182186,125.991127 L201.182186,93.4999673 L204.374547,93.4999673 L204.374547,99.6486221 C205.171061,97.6984887 206.520837,96.0422702 208.246682,94.8973888 C210.145839,93.6094849 212.380447,92.9487253 214.652914,93.0031063 C219.815761,93.0031063 223.025331,95.4253037 224.281624,100.269698 C225.203157,98.048346 226.783026,96.1848187 228.794813,94.9461877 C230.802567,93.6741284 233.115649,93.0071713 235.472095,93.0208513 C238.72182,93.0208513 241.288902,94.0352759 243.173341,96.0641249 C245.05778,98.092974 246,101.301868 246,105.690807 L246,126 L242.794733,125.995564 Z" id="Shape" fill-rule="nonzero"></path><path d="M106.969,48.254476 L73.0609838,48.254476 L80.4204307,36.3227341 L88.8772845,36.3227341 L80.2840298,19.1159064 L65.6891368,42.6842365 C65.1869336,43.4064209 65.5527359,43.9716087 65.7821374,43.9841684 L67.3631475,43.9841684 C67.8839508,43.9841684 68.1629526,44.5053971 67.8777507,45.0329057 L62.2977152,51.1808927 C62.1273164,51.3758609 62.0704509,51.6471092 62.1479254,51.8953892 C62.2253998,52.1436693 62.4258444,52.3325445 62.6759176,52.3929065 L63.680324,52.4557051 C63.9515661,52.4261866 64.2099877,52.5797132 64.3169336,52.8339108 C64.4238796,53.0881085 64.3542186,53.383243 64.145327,53.5609612 L52.1916508,62.8551601 C51.5034464,63.2068325 50.7470416,62.905399 51.0818437,62.0890167 L56.6618793,54.07591 C57.0090815,53.61748 56.7548799,53.0774116 56.0418753,53.1402103 L53.1030566,53.058572 C52.5822533,53.058572 52.3094516,52.782258 52.4830527,52.1165924 L56.7300797,45.1647828 C56.9656812,44.6372742 56.7982802,44.2730421 56.1720762,44.2228032 L54.0826628,44.1348851 C53.5184593,44.1976838 53.3572582,43.632496 53.4626589,43.1929055 L80.3398301,0 L107,48.2795954 L106.969,48.254476 Z" id="Path"></path></g></g></g></g></svg> 