<?xml version="1.0" encoding="UTF-8"?>
<svg width="533px" height="432px" viewBox="0 0 533 432" version="1.1" xmlns="http://www.w3.org/2000/svg" xmlns:xlink="http://www.w3.org/1999/xlink">
    <!-- Generator: Sketch 61.2 (89653) - https://sketch.com -->
    <title>10</title>
    <desc>Created with Sketch.</desc>
    <defs>
        <polygon id="path-1" points="0 0.828438891 77.7232187 0.828438891 77.7232187 97.346 0 97.346"></polygon>
        <polygon id="path-3" points="0.524 0.885 88.819 0.885 88.819 284.94 0.524 284.94"></polygon>
        <polyline id="path-5" points="14.942 0.288 63.88 0.288 49.401 31.047 0.832 31.047 14.942 0.288"></polyline>
        <linearGradient x1="0%" y1="49.9983745%" x2="99.9996828%" y2="49.9983745%" id="linearGradient-7">
            <stop stop-color="#D4EBDE" offset="0%"></stop>
            <stop stop-color="#B0DCDF" offset="100%"></stop>
        </linearGradient>
        <linearGradient x1="0%" y1="50%" x2="99.998678%" y2="50%" id="linearGradient-8">
            <stop stop-color="#D4EBDE" offset="0%"></stop>
            <stop stop-color="#B0DCDF" offset="100%"></stop>
        </linearGradient>
    </defs>
    <g id="Page-1" stroke="none" stroke-width="1" fill="none" fill-rule="evenodd">
        <g id="10">
            <path d="M175.007,158.413 L175.007,149.854 C175.007,146.148 177.362,142.666 180.006,140.271 C182.701,137.83 186.478,136.994 190.009,137.129 C191.81,137.198 193.703,137.816 195.419,138.756 C197.752,114.971 198.42,59.054 158.049,32.806 C71.463,95.391 133.244,180.379 133.244,180.379 L175.032,159.351 C175.02,159.039 175.007,158.729 175.007,158.413" id="Fill-1" fill="#1A8067"></path>
            <path d="M158.049,32.806 C157.748,33.023 157.455,33.243 157.157,33.461 L163.189,133.135 L113.852,95.13 C113.708,95.809 113.573,96.487 113.445,97.163 L163.338,135.597 L165.079,164.36 L166.886,163.45 L163.416,106.114 L192.169,84.286 C192.008,83.633 191.843,82.981 191.67,82.328 L163.281,103.88 L159.02,33.464 C158.695,33.245 158.38,33.02 158.049,32.806" id="Fill-2" fill="#005C5A"></path>
            <path d="M169.846,134.076 C169.846,134.076 130.594,59.231 71.13,58.478 C35.422,120.441 98.477,170.769 98.477,170.769 L169.517,191.153 L169.846,134.076" id="Fill-3" fill="#1EAE90"></path>
            <path d="M131.403,85.274 L118.452,120.442 L72.536,58.523 C72.067,58.508 71.601,58.484 71.13,58.478 C70.99,58.722 70.864,58.964 70.727,59.208 L95.319,92.37 L60.624,89.456 C60.588,89.785 60.562,90.11 60.53,90.438 L60.457,91.308 L96.795,94.361 L137.778,149.627 L76.724,146.453 C77.17,147.107 77.617,147.754 78.065,148.386 L139.214,151.565 L168.316,190.809 L169.517,191.153 L169.527,189.316 L119.778,122.229 L132.89,86.624 C132.399,86.172 131.903,85.723 131.403,85.274" id="Fill-4" fill="#21837F"></path>
            <path d="M181.076,239.767 C178.816,242.13 181.902,238.353 182.286,237.828 C182.288,237.823 182.29,237.82 182.293,237.814 C182.463,237.419 182.631,237.023 182.773,236.616 C183.081,235.772 183.498,232.687 183.298,234.804 C183.422,233.591 183.543,232.393 183.566,231.162 C183.577,230.569 183.646,229.996 183.742,229.434 L153.915,171.244 C153.915,171.244 91.032,139.28 55.735,170.88 C68.469,242.682 141.118,251.971 176.125,252.192 C175.795,247.728 177.874,243.113 181.076,239.767" id="Fill-5" fill="#5BBBA4"></path>
            <path d="M55.735,170.882 C55.8,171.249 55.872,171.609 55.939,171.973 L144.182,208.579 L98.632,233.666 C99.259,234.035 99.889,234.395 100.521,234.75 L146.382,209.492 L180.848,223.789 L179.536,221.228 L112.433,193.392 L97.131,156.937 C96.46,156.933 95.789,156.935308 95.117,156.947 L109.988,192.378 L56.527,170.201 C56.264,170.428 55.997,170.646 55.735,170.879 L55.735,170.882" id="Fill-6" fill="#188E75"></path>
            <path d="M410.828,163.123 C410.828,163.123 256.084,187.575 178.913,166.471 C165.304,113.945 178.913,8.065 178.913,8.065 L410.828,8.065 L410.828,163.123" id="Fill-7" fill="#1FB2D4"></path>
            <path d="M413.288,8.719 L177.64,8.719 C175.367,8.719 173.507,6.86 173.507,4.587 C173.507,2.314 175.367,0.455 177.64,0.455 L413.288,0.455 C415.56,0.455 417.42,2.314 417.42,4.587 C417.42,6.86 415.56,8.719 413.288,8.719" id="Fill-8" fill="#1B2441"></path>
            <path d="M228.99,126.911 C228.99,130.018 226.471,132.538 223.362,132.538 C220.254,132.538 217.735,130.018 217.735,126.911 C217.735,123.802 220.254,121.283 223.362,121.283 C226.471,121.283 228.99,123.802 228.99,126.911" id="Fill-9" fill="#B9D3E4"></path>
            <path d="M373.076,27.059 C373.076,30.167 370.557,32.686 367.448,32.686 C364.34,32.686 361.82,30.167 361.82,27.059 C361.82,23.951 364.34,21.431 367.448,21.431 C370.557,21.431 373.076,23.951 373.076,27.059" id="Fill-10" fill="#B9D3E4"></path>
            <polyline id="Fill-11" fill="#BED5E5" points="247.409 129.221 225.816 129.221 225.816 126.573 245.93 126.573 256.202 109.883 285.881 109.883 296.413 86.516 338.851 86.516 368.036 25.638 370.426 26.781 340.517 89.164 298.125 89.164 287.593 112.531 257.681 112.531 247.409 129.221"></polyline>
            <polyline id="Fill-12" fill="#32609D" points="373.757 143.016 207.865 143.016 207.865 28.748 210.514 28.748 210.514 140.368 373.757 140.368 373.757 143.016"></polyline>
            <polygon id="Fill-13" fill="#75C7D0" points="295.809 80.198 301.555 80.198 301.555 74.452 295.809 74.452"></polygon>
            <polygon id="Fill-14" fill="#75C7D0" points="295.809 72.022 301.555 72.022 301.555 66.277 295.809 66.277"></polygon>
            <polygon id="Fill-15" fill="#75C7D0" points="295.809 63.846 301.555 63.846 301.555 58.101 295.809 58.101"></polygon>
            <polyline id="Fill-16" fill="#75C7D0" points="292.113 55.671 305.251 55.671 298.763 45.516 292.113 55.671"></polyline>
            <polygon id="Fill-17" fill="#A4D8E2" points="335.244 54.245 340.989 54.245 340.989 48.5 335.244 48.5"></polygon>
            <polygon id="Fill-18" fill="#A4D8E2" points="335.244 46.069 340.989 46.069 340.989 40.324 335.244 40.324"></polygon>
            <polygon id="Fill-19" fill="#A4D8E2" points="335.244 37.893 340.989 37.893 340.989 32.148 335.244 32.148"></polygon>
            <polyline id="Fill-20" fill="#A4D8E2" points="331.549 29.718 344.685 29.718 338.197 19.563 331.549 29.718"></polyline>
            <path d="M63.332,376.484 C63.332,376.484 109.188,361.374 120.712,339.721 C126.265,329.287 118.385,317.101 106.568,317.331 C72.019,318.006 59.298,372.878 59.298,372.878 L63.332,376.484" id="Fill-21" fill="#1AAE8F"></path>
            <path d="M59.908,379.525 L58.688,378.808 C59.952,376.663 89.534,326.316 118.504,322.378 L119.514,323.6 C91.222,327.445 60.214,379.007 59.908,379.525" id="Fill-22" fill="#20837F"></path>
            <g id="Group-26" transform="translate(0.000000, 286.000000)">
                <mask id="mask-2" fill="white">
                    <use xlink:href="#path-1"></use>
                </mask>
                <g id="Clip-24"></g>
                <path d="M28.118,54.917 C22.622,47.57 19.427,41.038 17.726,35.373 C13.109,20 23.405,4.022 39.229,1.331 C48.108,-0.179 59.06,1.282 69.361,11.726 C92,34.681 61.499,97.346 61.499,97.346 L50.494,97.346 C50.494,97.346 50.078,84.271 28.118,54.917" id="Fill-23" fill="#5BBBA4" mask="url(#mask-2)"></path>
                <path d="M38.231,97.346 C38.231,97.346 6.137,90.351 0.315,65.795 C-1.495,58.157 4.742,50.91 12.582,51.31 C52.325,53.336 50.494,97.346 50.494,97.346 L38.231,97.346" id="Fill-25" fill="#1A8067" mask="url(#mask-2)"></path>
            </g>
            <path d="M55.585,383.506 L54.207,383.184 C54.355,382.553 68.159,319.413 33.027,289.164 L34.551,288.561 C70.332,319.371 55.735,382.865 55.585,383.506" id="Fill-27" fill="#46A28D"></path>
            <path d="M45.248,383.702 C45.026,383.327 22.739,346.146 1.239,343.935 L2.036,342.581 C24.25,344.864 45.557,381.431 46.469,382.987 L45.248,383.702" id="Fill-28" fill="#179F7F"></path>
            <polygon id="Fill-29" fill="#2E3130" points="30.998 422.245 71.951 422.245 71.951 383.346 30.998 383.346"></polygon>
            <path d="M74.894,388.286 L28.083,388.286 C26.527,388.286 25.253,387.012 25.253,385.456 C25.253,383.899 26.527,382.626 28.083,382.626 L74.894,382.626 C76.45,382.626 77.724,383.899 77.724,385.456 C77.724,387.012 76.45,388.286 74.894,388.286" id="Fill-30" fill="#161918"></path>
            <path d="M196.543,144.256 L226.553,219.572 L239.272,219.572 C242.889,219.572 244.088,220.524 247.222,222.332 L255.384,228.398 L222.434,228.398 C222.434,228.398 186.541,186.041 182.625,159.559 C194.395,147.788 196.543,144.256 196.543,144.256" id="Fill-31" fill="#F0AB85"></path>
            <path d="M147.999,120.72 L156.623,106.439 L167.768,112.243 L163.979,124.626 C163.872,124.684 163.759,124.73 163.644,124.773 C160.018,120.792 153.056,122.679 147.999,120.72" id="Fill-32" fill="#EC967C"></path>
            <path d="M157.893,84.167 L154.787,101.296 C156.488,101.622 157.052,103.663 156.359,105.17 C156.445,105.596 156.442,106.046 156.35,106.483 C158.782,109.262 163.454,113.237 170.608,113.532 C181.801,113.993 180.191,91.77 180.191,91.77 L157.893,84.167" id="Fill-33" fill="#F0AB85"></path>
            <path d="M149.528,95.618 C149.739,94.358 148.663,91.328 147.913,90.294 C143.079,83.625 149.401,81.071 151.615,80.286 C154.063,79.417 154.551,75.458 157.812,73.948 C162.793,71.641 166.048,76.005 168.859,76.138 C171.671,76.27 174.184,73.078 177.657,75.896 C181.13,78.714 179.977,81.688 180.929,83.281 C181.881,84.873 185.029,81.827 187.89,86.821 C192.241,94.417 180.215,94.411 180.215,94.411 C180.215,94.411 173.371,95.531 165.87,90.353 C164.842,89.643 163.438,89.573 162.49,90.387 C159.886,92.62 156.552,106.736 156.552,106.736 L154.333,103.799 C154.333,103.799 148.56,101.39 149.528,95.618" id="Fill-34" fill="#1B2441"></path>
            <path d="M155.628,98.511 C155.861,99.966 157.229,100.958 158.685,100.726 C160.142,100.494 161.134,99.125 160.901,97.669 C160.669,96.213 159.3,95.221 157.844,95.453 C156.388,95.686 155.396,97.055 155.628,98.511" id="Fill-35" fill="#F0AB85"></path>
            <path d="M129.465,211.335 L184.187,211.335 L184.187,159.559 L196.543,144.256 C196.543,144.256 182.747,118.779 156.694,118.779 C130.642,118.779 113.578,144.256 113.578,144.256 L129.465,166.616 L129.465,211.335" id="Fill-36" fill="#32609D"></path>
            <g id="Group-40" transform="translate(96.000000, 147.000000)">
                <mask id="mask-4" fill="white">
                    <use xlink:href="#path-3"></use>
                </mask>
                <g id="Clip-38"></g>
                <polyline id="Fill-37" fill="#24568D" mask="url(#mask-4)" points="88.775 64.335 88.775 0.94 88.819 0.885 87.599 0.885 87.599 64.335 88.775 64.335"></polyline>
                <path d="M15.647,265.732 C15.647,265.732 14.413,273.794 29.832,281.18 C32.995,282.694 31.761,283.507 32.164,285 C26.852,284.163 13.542,282.066 13.542,282.066 L7.542,272.722 L4.968,274.312 L0.524,268.319 C0.524,268.319 4.157,261.23 8.17,261.796 C11.296,263.441 15.647,265.732 15.647,265.732" id="Fill-39" fill="#14364D" mask="url(#mask-4)"></path>
            </g>
            <path d="M115.771,406.233 L111.647,412.732 C108.768,413.084 105.951,411.719 104.442,409.242 L104.17,408.796 L107.745,402.007 L115.771,406.233" id="Fill-41" fill="#F0AB85"></path>
            <path d="M138.35,414.195 C138.35,414.195 143.605,419.068 155.585,422.12 C158.223,422.792 161.067,421.894 161.067,426.246 C155.472,426.246 146.527,426.246 146.527,426.246 L134.435,424.155 L134.435,426.246 L127.904,426.246 C127.904,426.246 126.086,415.565 129.9,414.195 C133.433,414.195 138.35,414.195 138.35,414.195" id="Fill-42" fill="#14364D"></path>
            <path d="M137.065,406.522 L138.35,414.195 C135.967,415.847 132.837,415.952 130.349,414.463 L129.9,414.195 L130.551,406.522 L137.065,406.522" id="Fill-43" fill="#F0AB85"></path>
            <polyline id="Fill-44" fill="#FFFFFE" points="146.136 120.124 152.336 113.538 166.488 116.425 167.768 120.72 146.136 120.124"></polyline>
            <path d="M129.465,211.335 C119.426,296.097 129.465,408.256 129.465,408.256 L138.879,408.256 C138.879,408.256 167.768,288.417 163.004,211.335 C146.136,211.335 154.179,211.335 129.465,211.335" id="Fill-45" fill="#194764"></path>
            <path d="M184.775,211.335 C184.775,211.335 194.401,297.243 182.625,322.74 C170.85,348.238 116.716,407.472 116.716,407.472 L105.962,403.78 C105.962,403.78 126.166,343.922 153.607,311.756 C155.061,257.23 153.198,211.335 153.198,211.335 L184.775,211.335" id="Fill-46" fill="#194764"></path>
            <path d="M154.527,242.844 C154.064,242.794 153.61,242.711 153.168,242.589 C153.475,261.553 153.569,287.085 152.765,314.607 C121.535,347.949 106.207,402.892 106.055,403.443 L106.007,403.619 C106.468,403.505 106.959,403.44 107.475,403.415 L107.464,403.405 C108.802,398.735 124.101,346.987 153.952,315.238 L154.106,315.073 L154.113,314.856 C154.92,287.367 154.831,261.844 154.527,242.844" id="Fill-47" fill="#13374D"></path>
            <path d="M113.578,144.256 C113.578,144.256 94.161,166.027 94.161,180.738 C94.161,195.448 128.876,234.871 128.876,234.871 L134.761,223.691 L112.107,183.68 L129.465,166.616 L113.578,144.256" id="Fill-48" fill="#F0AB85"></path>
            <polyline id="Fill-49" fill="#13374D" points="128.806 236.521 127.769 235.966 136.007 220.667 137.044 221.223 128.806 236.521"></polyline>
            <polyline id="Fill-50" fill="#21837F" points="226.884 416.17 241.501 307.718 238.779 307.338 224.11 416.17 226.884 416.17"></polyline>
            <polyline id="Fill-51" fill="#21837F" points="309.26 416.17 294.591 307.338 291.868 307.718 306.486 416.17 309.26 416.17"></polyline>
            <path d="M234.053,300.552 C234.053,300.552 203.833,231.26 224.755,211.208 C237.176,199.304 260.297,201.034 277.034,204.404 C288.605,206.735 296.954,216.851 296.954,228.655 L296.954,299.691 L234.053,300.552" id="Fill-52" fill="#136A56"></path>
            <path d="M296.789,211.938 C292.337,205.863 286.183,201.314 279.13,199.204 C274.348,197.773 268.188,196.683 260.522,196.683 C259.903,196.683 259.294,196.692 258.696,196.711 C244.202,197.167 232.39,206.244 225.993,219.798 L222.778,226.515 L239.67,233.35 L242.783,228.224 L239.959,274.663 L287.158,274.663 L286.67,221.892 L303.085,222.193 L296.789,211.938" id="Fill-53" fill="#1FB2D4"></path>
            <path d="M267.98,191.093 L268.868,198.068 C268.868,198.068 269.248,201.687 263.04,201.687 C260.512,201.687 258.883,201.087 257.839,200.376 C256.638,199.558 256.043,198.055 256.233,196.574 L258.158,181.557 L267.98,191.093" id="Fill-54" fill="#EC967C"></path>
            <path d="M223.744,227.018 C223.744,227.018 215.636,245.714 219.11,250.84 C222.585,255.966 268.868,245.11 268.868,245.11 L268.868,238.778 L233.878,241.19 L238.751,232.984 L223.744,227.018" id="Fill-55" fill="#F0AB85"></path>
            <path d="M307.286,236.381 C307.286,236.381 318.564,244.006 318.572002,249.772 C318.58,255.54 297.918,251.168 297.918,251.168 L307.286,236.381" id="Fill-56" fill="#F0AB85"></path>
            <g id="Group-59" transform="translate(256.000000, 221.000000)">
                <mask id="mask-6" fill="white">
                    <use xlink:href="#path-5"></use>
                </mask>
                <g id="Clip-58"></g>
                <polyline id="Fill-57" fill="url(#linearGradient-7)" mask="url(#mask-6)" points="14.942 0.288 63.88 0.288 49.401 31.047 0.832 31.047 14.942 0.288"></polyline>
            </g>
            <path d="M269.539,191.816 C271.288,192.135 272.957,192.185 273.956,191.583 C280.62,184.343 279.361,160.686 279.361,160.686 L260.495,160.167 L256.933,175.071 C255.981,179.049 256.905,183.262 259.42,186.416 C262.235,189.176 265.731,191.121 269.539,191.816" id="Fill-60" fill="#F0AB85"></path>
            <path d="M284.204,157.06 C281.745,154.186 277.855,153.612 276.01,154.735 C274.639,155.569 269.906,147.435 260.522,148.039 C254.074,148.454 245.461,158.867 256.041,179.518 C256.741,177.213 261.538,164.51 264.794,166.86 C267.879,169.657 271.364,170.851 274.142,171.338 C277.765,171.973 282.877,169.881 285.066,166.81 C286.913,164.22 287.783,161.304 284.204,157.06" id="Fill-61" fill="#1B2441"></path>
            <path d="M257.026,168.893 C258.233,168.095 260.079,168.693 261.148,170.227 C262.217,171.762 262.104,173.652 260.897,174.45 C259.689,175.247 257.844,174.65 256.775,173.115 C255.706,171.58 255.818,169.69 257.026,168.893" id="Fill-62" fill="#F0AB85"></path>
            <path d="M258.961,145.547 C258.961,145.547 256.832,141.226 249.515,142.879 C236.34,146.612 237.99,163.058 239.345,171.46 C240.066,175.924 238.968,180.478 236.284,184.038 C229.762,192.688 220.044,209.34 232.955,218.853 C235.401,220.655 238.481,221.441 241.377,220.641 C244.201,219.858 245.96,218.004 247.054,216.06 C248.521,213.454 248.789,210.286 247.987,207.382 C247.374,205.168 246.792,202.132 247.626,200.581 C249.032,197.968 257.098,192.862 257.622,184.951 C258.147,177.04 253.327,173.995 252.148,165.652 C250.073,150.968 253.141,149.117 253.141,149.117 L258.961,145.547" id="Fill-63" fill="#1B2441"></path>
            <polyline id="Fill-64" fill="#FACB57" points="254.275 151.581 260.522 148.039 258.961 145.547 253.141 149.117 254.275 151.581"></polyline>
            <path d="M233.388,311.948 L299.892,311.948 C299.892,307.506 297.477,303.639 294.036,302.589 C281.923,298.896 257.389,291.226 240.083,293.724 C234.345,294.552 230.361,301.657 232.027,308.593 C232.563,310.825 233.388,311.948 233.388,311.948" id="Fill-65" fill="#1A8067"></path>
            <path d="M358.738,407.756 L374.745,396.093 C377.088,394.846 380.053,393.926 382.239,396.099 C382.239,396.099 383.704,397.53 384.838207,399.19 C384.916,400.49 362.936,414.914 362.936,414.914 L362.769,414.88 C357.892,412.898 358.738,407.756 358.738,407.756" id="Fill-66" fill="#21837F"></path>
            <polyline id="Fill-67" fill="#5BBDB7" points="384.838 399.19 362.936 414.914 363.948 415.91 385.605 400.183 384.838 399.19"></polyline>
            <polyline id="Fill-68" fill="#FFFFFE" points="365.063 403.124 366.516 402.089 367.971 405.037 366.571 406.054 365.063 403.124"></polyline>
            <polyline id="Fill-69" fill="#FFFFFE" points="368.157 400.877 369.609 399.842 371.064 402.79 369.665 403.807 368.157 400.877"></polyline>
            <path d="M352.33,400.309 L358.738,407.756 C360.655,407.689 362.365,406.529 363.133,404.771 L363.272,404.452 L361.685,399.758 L352.33,400.309" id="Fill-70" fill="#F0AB85"></path>
            <path d="M266.919,304.714 C266.919,304.714 285.972,332.599 314.302,345.34 C321.714,362.661 354.718,403.541 354.718,403.541 L361.685,399.758 L301.76,296.165 L266.919,304.714" id="Fill-71" fill="#18415C"></path>
            <path d="M293.69,406.158 L313.494,406.127 C316.123,406.494 319.062,407.492 319.555,410.535 C319.555,410.535 319.899,412.554 319.841,414.563 C319.141,415.662 292.88,414.417 292.88,414.417 L292.766,414.291 C289.983,409.822 293.69,406.158 293.69,406.158" id="Fill-72" fill="#21837F"></path>
            <polyline id="Fill-73" fill="#5BBDB7" points="319.841 414.563 292.88 414.417 293.113 415.817 319.88 415.817 319.841 414.563"></polyline>
            <polyline id="Fill-74" fill="#FFFFFE" points="301.529 406.127 303.312 406.143 302.758 409.383 301.027 409.383 301.529 406.127"></polyline>
            <polyline id="Fill-75" fill="#FFFFFE" points="305.353 406.127 307.137 406.143 306.581 409.383 304.851 409.383 305.353 406.127"></polyline>
            <path d="M292.88,396.366 L293.69,406.158 C295.279,407.231 297.345,407.296 298.999,406.325 L299.3,406.149 L301.027,397.351 L292.88,396.366" id="Fill-76" fill="#F0AB85"></path>
            <path d="M240.639,274.663 L240.639,282.942 C240.639,295.971 249.932,307.204 262.759,309.481 C274.313,311.532 289.647,311.692 306.936,305.323 C290.551,333.594 292.601,399.758 292.601,399.758 L300.412,399.758 L335.255,293.829 C338.958,284.25 331.84,273.953 321.57,274.032537 L240.639,274.663" id="Fill-77" fill="#1E4F75"></path>
            <polygon id="Fill-78" fill="url(#linearGradient-8)" points="245.42 252.222 283.242 252.222 283.242 248.638 245.42 248.638"></polygon>
            <path d="M435.241,257.086 L87.236,257.086 C87.236,254.43 89.929,252.276 93.251,252.276 L429.225,252.276 C432.548,252.276 435.241,254.43 435.241,257.086" id="Fill-80" fill="#2E3130"></path>
            <polyline id="Fill-81" fill="#2E3130" points="97.11 425.111 94.161 424.596 107.688 256.911 110.637 257.427 97.11 425.111"></polyline>
            <polyline id="Fill-82" fill="#2E3130" points="431.209 425.111 434.158 424.596 420.63 256.911 417.682 257.427 431.209 425.111"></polyline>
            <path d="M429.59,148.751 C423.25,169.84 424.155,245.144 424.155,245.144 L414.212,245.144 C412.565,245.144 410.942,245.539 409.479,246.294 L397.111,252.68 L421.326,252.68 C426.122,252.68 430.243,249.274 431.147,244.564 L445.119,171.757 C445.119,171.757 435.93,127.663 429.59,148.751" id="Fill-83" fill="#EC967C"></path>
            <polyline id="Fill-84" fill="#EC967C" points="422.474 146.172 427.503 159.749 441.63 153.5 429.018 134.815 422.474 146.172"></polyline>
            <path d="M419.376,150.624 C417.744,151.37 416.134,151.86 415.041,151.607 C407.085,147.132 403.445,126.334 403.445,126.334 L409.334,119.569 L421.648,120.825 L428.17,132.761 C429.91,135.947 429.879,139.837 428.086,143.24 C425.922,146.382 422.929,149.002 419.376,150.624" id="Fill-85" fill="#F0AB85"></path>
            <path d="M423.555,128.467 C422.031,126.672 419.982,121.811 418.063,123.177 C416.663,124.172 411.553,126.946 409.797,127.807 C405.614,129.858 397.355,131.879 394.233,125.514 C392.673,122.331 394.413,118.074 395.968,116.299 C397.494,114.557 399.68,113.533 401.979,113.256 C407.375,112.606 415.225,113.163 417.422,111.477 C421.116,108.643 426.384,109.041 428.034,112.552 C429.797,116.302 430.6,122.85 430.516,127.301 C430.467,129.876 429.956,132.415 429.018,134.815 L423.555,128.467" id="Fill-86" fill="#1B2441"></path>
            <path d="M428.02,126.848 C426.684,126.481 425.017,127.493 424.295,129.107 C423.572,130.721 424.07,132.326 425.406,132.692 C426.742,133.058 428.41,132.046 429.133,130.432 C429.854,128.818 429.356,127.213 428.02,126.848" id="Fill-87" fill="#F0AB85"></path>
            <path d="M493.18,407.003 C493.18,407.003 493.143,415.397 476.282,420.436 C472.823,421.471 473.948,422.493 473.299,423.948 C478.834,423.948 492.703,423.948 492.703,423.948 L500.301,415.406 L502.663,417.436 L508.142,412.055 C508.142,412.055 505.583,404.265 501.412,404.197 C497.971,405.37 493.18,407.003 493.18,407.003" id="Fill-88" fill="#194764"></path>
            <path d="M490.027,399.733 L493.18,407.003 C496.05,407.82 499.134,406.884 501.064,404.607 L501.412,404.197 L498.864,396.722 L490.027,399.733" id="Fill-89" fill="#F0AB85"></path>
            <g id="Group-93" transform="translate(425.000000, 146.000000)">
                <path d="M15.523,0.416 C53.109,-3.716 87.619,66.595 87.619,66.595 L42.189,98.483 C42.189,98.483 -6.857,53.585 1.1,13.884 C2.517,6.811 8.353,1.205 15.523,0.416" id="Fill-90" fill="#1EAE90"></path>
                <path d="M95.31,265.122 C95.31,265.122 89.901,270.139 77.569,273.28 C74.854,273.972 71.927,273.048 71.927,277.526 C77.685,277.526 86.892,277.526 86.892,277.526 L99.339,275.374 L99.339,277.526 L106.061,277.526 C106.061,277.526 107.934,266.532 104.007,265.122 C100.371,265.122 95.31,265.122 95.31,265.122" id="Fill-92" fill="#194764"></path>
            </g>
            <path d="M521.632,403.225 L520.31,411.122 C522.763,412.822 525.984,412.931 528.546,411.398 L529.007,411.122 L528.338,403.225 L521.632,403.225" id="Fill-94" fill="#F0AB85"></path>
            <path d="M467.189,244.483 C467.189,244.483 442.289,289.695 445.565,313.611 C448.842,337.528 492.088,404.037 492.088,404.037 L499.951,400.433 C499.951,400.433 491.213,350.084 483.11,326.868 C481.194,321.38 480.069,315.661 482.61,310.433 C493.927,287.146 508.142,248.742 508.142,248.742 L485.18,231.855 L467.189,244.483" id="Fill-95" fill="#13394A"></path>
            <g id="Group-99" transform="translate(319.000000, 171.000000)">
                <path d="M110.431,0.533 C110.431,0.533 90.091,21.064 76.985,30.674 C66.289,38.518 43.661,46.652 35.705,48.949 C33.892,49.473 31.955,49.272 30.282,48.399 L22.818,44.506 L0.54,47.268 C0.54,47.268 5.095,53.398 15.245,49.747 C16.894,52.731 17.468,54.961 18.888,56.518 C20.572,58.364 23.039,59.249 25.52,58.941 C35.556,57.697 64.523,52.407 83.975,44.216 C107.832,34.169 132.026,14.075 132.026,14.075 L110.431,0.533" id="Fill-96" fill="#F0AB85"></path>
                <path d="M158.887,65.975 L201.264,236.311 L210.436,236.311 C210.436,236.311 217.559,187.36 209.441,153.436 C208.237,148.404 208.006,143.17 208.48,138.018 C213.037,88.549 210.157,58.285 193.619,41.595 L158.887,65.975" id="Fill-98" fill="#194764"></path>
            </g>
            <polyline id="Fill-100" fill="#5BBAA3" points="450.942 185.105 449.951 184.4 463.637 173.91 464.343 174.833 450.942 185.105"></polyline>
            <polyline id="Fill-101" fill="#5BBAA3" points="430.513 172.211 429.431 171.533 440.74 158.526 441.63 159.274 430.513 172.211"></polyline>
            <path d="M58.525,107.348 C59.789,106.758 61.031,106.066 62.216,105.294 C62.488,105.118 62.848,105.195 63.025,105.466 C63.202,105.736 63.125,106.098 62.854,106.275 C61.625,107.077 60.334,107.795 59.02,108.409 C58.544,108.631 58.064,108.841 57.581,109.039 C57.403,109.113 57.211,109.092 57.058,109.001 C56.953,108.938 56.866,108.842 56.817,108.721 C56.694,108.422 56.837,108.08 57.136,107.958 C57.603,107.766 58.065,107.562 58.525,107.348" id="Fill-102" fill="#AEDCE9"></path>
            <path d="M128.709,15.86 C130.549,15.914 132.47,16.026 134.582,16.205 C134.904,16.233 135.141,16.515 135.116,16.837 C135.089,17.159 134.806,17.398 134.484,17.371 C132.393,17.194 130.493,17.083 128.675,17.03 C128.571,17.027 128.475,16.997 128.391,16.947 C128.216,16.842 128.101,16.647 128.106,16.428 C128.116,16.105 128.385,15.85 128.709,15.86" id="Fill-103" fill="#AEDCE9"></path>
            <path d="M119.04,17.264 C118.889,17.173 118.78,17.014 118.759,16.824 C118.725,16.503 118.957,16.214 119.279,16.18 C121.145,15.979 123.128,15.862 125.172,15.832 C125.495,15.827 125.763,16.085 125.765,16.408 C125.77,16.732 125.512,16.997 125.189,17.002 C123.182,17.032 121.235,17.146 119.403,17.343 C119.272,17.357 119.146,17.327 119.04,17.264" id="Fill-104" fill="#AEDCE9"></path>
            <path d="M69.068,99.22 C69.276,98.972 69.644,98.932 69.893,99.149 C70.14,99.357 70.172,99.725 69.963,99.973 C68.687,101.49 67.265,102.899 65.735,104.159 C65.54,104.321 65.269,104.333 65.063,104.21 C65.007,104.177 64.956,104.134 64.912,104.08 C64.707,103.83 64.743,103.461 64.992,103.256 C66.465,102.041 67.837,100.683 69.068,99.22" id="Fill-105" fill="#AEDCE9"></path>
            <path d="M71.301,97.278 C71.031,97.098 70.959,96.735 71.139,96.466 C71.428,96.032 71.707,95.591 71.976,95.143 C72.693,93.944 73.329,92.692 73.868,91.424 C73.993,91.126 74.336,90.987 74.634,91.113 C74.924,91.239 75.072,91.583 74.945,91.88 C74.387,93.199 73.725,94.498 72.98,95.744 C72.702,96.208 72.413,96.666 72.111,97.116 C71.938,97.376 71.592,97.453 71.325,97.293 C71.317,97.289 71.308,97.283 71.301,97.278" id="Fill-106" fill="#AEDCE9"></path>
            <path d="M75.424,88.911 C75.377,88.896 75.332,88.876 75.292,88.852 C75.068,88.718 74.954,88.444 75.033,88.182 C75.558,86.434 75.962,84.594 76.267,82.557 C76.314,82.237 76.613,82.016 76.932,82.064 C77.249,82.112 77.472,82.41 77.424,82.729 C77.111,84.823 76.695,86.717 76.153,88.518 C76.061,88.828 75.733,89.003 75.424,88.911" id="Fill-107" fill="#AEDCE9"></path>
            <path d="M85.963,37.701 C85.537,38.341 85.125,38.991 84.731,39.65 C84.136,40.644 83.576,41.669 83.064,42.695 C82.92,42.984 82.569,43.102 82.28,42.958 C82.267,42.951 82.253,42.944 82.24,42.936 C81.98,42.781 81.88,42.449 82.018,42.174 C82.541,41.12 83.117,40.069 83.727,39.049 C84.131,38.373 84.552,37.707 84.991,37.052 C85.17,36.783 85.512,36.679 85.803,36.89 C86.071,37.07 86.143,37.432 85.963,37.701" id="Fill-108" fill="#AEDCE9"></path>
            <path d="M81.644,45.854 C80.921,47.647 80.319,49.491 79.853,51.336 C79.775,51.65 79.456,51.839 79.143,51.76 C79.086,51.745 79.034,51.724 78.986,51.695 C78.77,51.566 78.654,51.306 78.719,51.05 C79.197,49.154 79.815,47.258 80.558,45.416 C80.678,45.116 81.02,44.971 81.319,45.092 C81.614,45.21 81.765,45.553 81.644,45.854" id="Fill-109" fill="#AEDCE9"></path>
            <path d="M91.826,30.568 C90.464,31.93 89.175,33.385 87.995,34.893 C87.812,35.129 87.484,35.185 87.235,35.036 C87.214,35.023 87.194,35.009 87.174,34.994 C86.92,34.795 86.875,34.428 87.074,34.173 C88.282,32.627 89.603,31.136 90.997,29.74 C91.225,29.512 91.597,29.509 91.826,29.74 C92.054,29.969 92.053,30.339 91.826,30.568" id="Fill-110" fill="#AEDCE9"></path>
            <path d="M101.908,22.882 C101.718,22.99 101.494,22.979 101.319,22.875 C101.235,22.825 101.162,22.752 101.11,22.661 C100.951,22.38 101.05,22.022 101.331,21.864 C103.057,20.888 104.851,20.019 106.662,19.282 C106.963,19.161 107.303,19.306 107.424,19.604 C107.546,19.903 107.402,20.245 107.103,20.366 C105.338,21.084 103.59,21.931 101.908,22.882" id="Fill-111" fill="#AEDCE9"></path>
            <path d="M77.623,70.385 C77.516,70.383 77.416,70.353 77.331,70.302 C77.159,70.199 77.043,70.007 77.047,69.791 L77.057,69.05 C77.083,67.343 77.109,65.635 77.166,63.929 C77.177,63.606 77.448,63.353 77.771,63.364 C78.094,63.376 78.347,63.644 78.336,63.969 C78.279,65.666 78.254,67.368 78.228,69.068 L78.216,69.808 C78.212,70.132 77.946,70.39 77.623,70.385" id="Fill-112" fill="#AEDCE9"></path>
            <path d="M94.364,28.206 C94.168,28.375 93.893,28.391 93.682,28.265 C93.63,28.234 93.581,28.194 93.539,28.145 C93.328,27.901 93.354,27.531 93.6,27.32 C95.094,26.029 96.678,24.821 98.307,23.73 C98.577,23.551 98.937,23.624 99.119,23.891 C99.298,24.159 99.227,24.523 98.958,24.703 C97.368,25.767 95.823,26.945 94.364,28.206" id="Fill-113" fill="#AEDCE9"></path>
            <path d="M8.916,119.677 C7.664,120.389 6.377,121.179 5.013,122.067 C4.95,121.966 4.892,121.864 4.828,121.763 C4.684,121.535 4.524,121.313 4.368,121.091 C5.754,120.188 7.063,119.384 8.337,118.659 C8.62,118.498 8.976,118.598 9.135,118.878 C9.295,119.159 9.197,119.517 8.916,119.677" id="Fill-114" fill="#AEDCE9"></path>
            <path d="M77.578,72.727 C77.903,72.737 78.156,73.002 78.146,73.328 C78.084,75.624 77.985,77.492 77.835,79.207 C77.807,79.529 77.523,79.766 77.201,79.738 C77.109,79.73 77.025,79.702 76.952,79.658 C76.765,79.546 76.649,79.335 76.668,79.104 C76.817,77.413 76.915,75.568 76.978,73.295 C76.986,72.972 77.255,72.718 77.578,72.727" id="Fill-115" fill="#AEDCE9"></path>
            <path d="M16.932,114.715 C17.235,114.61 17.57,114.776 17.675,115.08 C17.78,115.386 17.617,115.718 17.311,115.823 C15.551,116.425 13.807,117.153 11.985,118.048 C11.8,118.14 11.59,118.123 11.426,118.026 C11.332,117.969 11.253,117.887 11.202,117.782 C11.059,117.492 11.179,117.142 11.468,116.998 C13.337,116.08 15.124,115.333 16.932,114.715" id="Fill-116" fill="#AEDCE9"></path>
            <path d="M53.882,109.107 C54.19,109.014 54.518,109.189 54.61,109.498 C54.704,109.808 54.529,110.134 54.219,110.227 C52.439,110.765 50.553,111.2 48.453,111.558 C48.309,111.582 48.169,111.552 48.054,111.483 C47.913,111.398 47.807,111.254 47.777,111.08 C47.723,110.761 47.937,110.458 48.256,110.404 C50.307,110.054 52.147,109.629 53.882,109.107" id="Fill-117" fill="#AEDCE9"></path>
            <path d="M78.67,54.053 C78.987,54.108 79.206,54.407 79.152,54.726 C78.862,56.484 78.65,58.367 78.507,60.482 C78.485,60.805 78.206,61.048 77.884,61.026 C77.788,61.02 77.7,60.991 77.623,60.945 C77.44,60.835 77.324,60.63 77.339,60.403 C77.485,58.25 77.701,56.331 77.998,54.536 C78.05,54.217 78.351,54 78.67,54.053" id="Fill-118" fill="#AEDCE9"></path>
            <path d="M26.15,112.602 C26.471,112.556 26.767,112.779 26.812,113.099 C26.857,113.419 26.635,113.716 26.315,113.76 C24.232,114.055 22.374,114.41 20.63,114.846 C20.474,114.885 20.316,114.857 20.187,114.78 C20.059,114.704 19.96,114.578 19.92,114.421 C19.842,114.106 20.032,113.788 20.345,113.711 C22.129,113.265 24.028,112.902 26.15,112.602" id="Fill-119" fill="#AEDCE9"></path>
            <path d="M113.743,17.075 C114.414,16.927 115.089,16.794 115.765,16.675 C116.081,16.62 116.387,16.831 116.442,17.15 C116.498,17.468 116.286,17.772 115.967,17.828 C115.307,17.943 114.65,18.073 113.994,18.217 C112.778,18.484 111.555,18.812 110.361,19.191 C110.195,19.243 110.022,19.218 109.884,19.135 C109.765,19.064 109.671,18.952 109.626,18.81 C109.529,18.502 109.699,18.172 110.008,18.075 C111.235,17.685 112.493,17.349 113.743,17.075" id="Fill-120" fill="#AEDCE9"></path>
            <path d="M44.812,110.9 C45.129,110.862 45.423,111.088 45.462,111.411 C45.501,111.731 45.272,112.023 44.951,112.061 C42.848,112.314 40.719,112.488 39.101,112.612 C38.976,112.622 38.856,112.591 38.756,112.531 C38.599,112.437 38.488,112.271 38.473,112.074 C38.448,111.751 38.69,111.47 39.011,111.445 C40.619,111.323 42.73,111.15 44.812,110.9" id="Fill-121" fill="#AEDCE9"></path>
            <path d="M35.51,111.699 C35.832,111.676 36.113,111.917 36.136,112.24 C36.16,112.563 35.916,112.842 35.595,112.866 C33.824,112.993 31.77,113.145 29.779,113.346 C29.649,113.359 29.525,113.329 29.42,113.266 C29.267,113.174 29.157,113.014 29.138,112.823 C29.105,112.501 29.34,112.214 29.661,112.181 C31.668,111.979 33.733,111.826 35.51,111.699" id="Fill-122" fill="#AEDCE9"></path>
            <path d="M290.894,234.261 C289.565,234.261 288.487,235.338 288.487,236.667 C288.487,237.997 289.565,239.074 290.894,239.074 C292.225,239.074 293.302,237.997 293.302,236.667 C293.302,235.338 292.225,234.261 290.894,234.261" id="Fill-123" fill="#FFFFFE"></path>
            <polyline id="Fill-124" fill="#8ACFE8" points="181.991 20.099 160.82 8.414 150.012 6.252 141.844 7.453 181.991 20.099"></polyline>
            <polyline id="Fill-125" fill="#31609D" points="181.991 20.099 142.347 9.908 141.844 7.453"></polyline>
            <polyline id="Fill-126" fill="#207DB5" points="141.215 16.709 141.266 16.792 142.93 22.947 181.891 20.101 141.215 16.709"></polyline>
            <polyline id="Fill-127" fill="#90D1E2" points="133.645 13.102 139.301 8.512 181.733 20.033 145.207 18.947 133.645 13.102"></polyline>
            <polyline id="Fill-128" fill="#41AEB6" points="493.752 32.069 496.203 40.474 488.367 37.06 462.02 22.943 493.752 32.069"></polyline>
            <polyline id="Fill-129" fill="#277973" points="496.203 40.474 482.455 36.983 486.191 35.893 496.203 40.474"></polyline>
            <polyline id="Fill-130" fill="#88CEDC" points="493.752 32.069 497.598 25.058 462.02 22.943 493.752 32.069"></polyline>
            <polyline id="Fill-131" fill="#88CEDC" points="462.02 22.943 488.367 37.06 482.158 47.04 462.02 22.943"></polyline>
            <path d="M491.675,47.612 C491.755,47.588 491.832,47.55 491.901,47.495 C492.189,47.268 492.239,46.849 492.012,46.56 C491.292,45.649 490.492,44.806 489.633,44.056 C489.355,43.812 488.935,43.841 488.693,44.12 C488.451,44.397 488.479,44.818 488.757,45.059 C489.555,45.755 490.298,46.537 490.966,47.385 C491.14,47.604 491.422,47.685 491.675,47.612" id="Fill-132" fill="#AEDCE9"></path>
            <path d="M471.244,61.676 C469.569,60.484 467.356,59.847 465.326,59.971 C464.959,59.994 464.642,59.714 464.62,59.347 C464.598,58.979 464.879,58.666 465.244,58.641 C467.604,58.497 470.073,59.208 472.017,60.592 C472.316,60.805 472.386,61.221 472.173,61.521 C472.083,61.647 471.956,61.733 471.817,61.773 C471.629,61.828 471.417,61.799 471.244,61.676 Z M458.894,67.085 C458.527,67.106 458.212,66.826 458.191,66.458 C458.077,64.511 458.603,62.742 459.712,61.342 C460.114,60.835 460.588,60.389 461.119,60.015 C461.419,59.802 461.836,59.876 462.047,60.177 C462.259,60.477 462.186,60.892 461.886,61.104 C461.458,61.404 461.078,61.763 460.756,62.169 C459.84,63.325 459.425,64.742 459.52,66.381 C459.538,66.697 459.334,66.974 459.042,67.059 C458.995,67.073 458.945,67.082 458.894,67.085 Z M495.705,57.445 C495.341,57.498 495.003,57.245 494.95,56.881 C494.808,55.9 494.597,54.923 494.32,53.979 C493.987,52.837 493.556,51.725 493.039,50.678 C492.876,50.349 493.012,49.949 493.341,49.786 C493.673,49.621 494.07,49.758 494.232,50.089 C494.784,51.206 495.244,52.389 495.6,53.606 C495.892,54.61 496.117,55.648 496.268,56.691 C496.316,57.023 496.11,57.333 495.797,57.425 C495.767,57.433 495.736,57.441 495.705,57.445 Z M477.056,70.12 C476.061,67.672 475.076,65.845 473.955,64.37 C473.732,64.077 473.789,63.659 474.082,63.437 C474.374,63.216 474.792,63.272 475.015,63.564 C476.21,65.135 477.25,67.06 478.29,69.619 C478.428,69.96 478.265,70.349 477.923,70.487 C477.902,70.495 477.881,70.503 477.858,70.509 C477.535,70.604 477.185,70.44 477.056,70.12 Z M463.686,75.991 C463.208,75.62 462.747,75.223 462.317,74.811 C461.07,73.62 460.021,72.156 459.286,70.579 C459.131,70.246 459.274,69.849 459.608,69.694 C459.939,69.539 460.338,69.683 460.493,70.016 C461.159,71.445 462.109,72.77 463.237,73.849 C463.635,74.229 464.06,74.596 464.503,74.939 C464.793,75.164 464.846,75.582 464.62,75.873 C464.531,75.989 464.411,76.066 464.281,76.104 C464.084,76.162 463.861,76.127 463.686,75.991 Z M494.283,68.005 C493.938,67.875 493.765,67.491 493.894,67.147 C494.646,65.148 495.072,63.007 495.157,60.786 C495.171,60.419 495.48,60.131 495.848,60.146 C496.216,60.16 496.502,60.47 496.487,60.837 C496.396,63.202 495.943,65.483 495.141,67.616 C495.064,67.82 494.897,67.964 494.703,68.021 C494.57,68.06 494.423,68.057 494.283,68.005 Z M473.932,79.969 C471.567,79.727 469.32,79.12 467.255,78.16 C466.922,78.004 466.776,77.609 466.932,77.275 C467.087,76.94 467.484,76.796 467.815,76.952 C469.747,77.849 471.85,78.418 474.067,78.643 C474.433,78.681 474.699,79.008 474.662,79.373 C474.634,79.651 474.438,79.871 474.185,79.945 C474.106,79.969 474.019,79.977 473.932,79.969 Z M487.516,76.17 C487.305,75.87 487.377,75.454 487.679,75.243 C488.782,74.467 489.783,73.574 490.651,72.59 C491.192,71.975 491.696,71.311 492.147,70.616 C492.348,70.309 492.76,70.219 493.069,70.421 C493.377,70.62 493.465,71.033 493.265,71.342 C492.778,72.091 492.234,72.807 491.65,73.47 C490.713,74.533 489.634,75.496 488.443,76.332 C488.383,76.376 488.316,76.407 488.247,76.427 C487.981,76.504 487.684,76.41 487.516,76.17 Z M481.307,80.701 C480.953,80.798 480.586,80.591 480.487,80.236 C480.437,80.057 480.387,79.876 480.336,79.696 C479.593,79.836 478.842,79.938 478.087,80.002 C477.721,80.034 477.397,79.762 477.366,79.395 C477.335,79.029 477.601,78.71 477.975,78.675 C478.641,78.619 479.302,78.531 479.958,78.411 C479.523,76.982 479.03,75.488 478.459,73.872 C478.337,73.526 478.518,73.145 478.865,73.023 C479.207,72.901 479.593,73.081 479.715,73.429 C480.308,75.103 480.816,76.649 481.264,78.132 C482.297,77.874 483.31,77.536 484.275,77.126 C484.616,76.978 485.006,77.141 485.149,77.478 C485.294,77.816 485.136,78.207 484.798,78.352 C483.783,78.782 482.721,79.138 481.639,79.411 C481.684,79.567 481.727,79.724 481.771,79.881 C481.868,80.232 481.665,80.596 481.315,80.698 C481.313,80.699 481.31,80.7 481.307,80.701 Z M483.117,91.295 C482.75,91.321 482.431,91.045 482.404,90.679 C482.254,88.608 481.931,86.4 481.443,84.117 C481.366,83.756 481.61,83.395 481.956,83.327 C482.315,83.249 482.669,83.478 482.746,83.838 C483.246,86.182 483.578,88.451 483.732,90.582 C483.756,90.901 483.55,91.183 483.256,91.269 C483.211,91.282 483.165,91.29 483.117,91.295 Z M482.045,101.954 C481.689,101.86 481.476,101.495 481.57,101.14 L481.644,100.849 C482.126,98.879 482.408,96.789 482.484,94.637 C482.497,94.27 482.806,93.98 483.173,93.996 C483.54,94.008 483.828,94.317 483.815,94.685 C483.736,96.926 483.44,99.107 482.937,101.166 L482.858,101.479 C482.797,101.714 482.617,101.886 482.4,101.949 C482.288,101.982 482.165,101.985 482.045,101.954 Z M476.833,111.275 C476.553,111.038 476.518,110.619 476.756,110.337 C478.169,108.671 479.346,106.817 480.254,104.829 C480.407,104.495 480.803,104.348 481.137,104.5 C481.471,104.653 481.619,105.049 481.466,105.383 C480.507,107.482 479.264,109.438 477.771,111.198 C477.684,111.302 477.571,111.372 477.45,111.407 C477.243,111.467 477.01,111.426 476.833,111.275 Z M467.99,117.205 C467.865,116.859 468.045,116.477 468.391,116.352 C470.35,115.644 472.228,114.549 473.975,113.098 C474.259,112.867 474.679,112.901 474.914,113.184 C475.148,113.468 475.109,113.888 474.827,114.123 C472.961,115.672 470.948,116.845 468.843,117.605 C468.83,117.61 468.816,117.614 468.803,117.618 C468.468,117.716 468.11,117.537 467.99,117.205 L467.99,117.205 Z" id="Fill-133" fill="#AEDCE9"></path>
            <path d="M464.809,118.52 C465.109,118.433 465.314,118.142 465.285,117.82 C465.252,117.454 464.928,117.184 464.561,117.217 C463.504,117.314 462.435,117.294 461.388,117.155 C461.023,117.105 460.687,117.363 460.64,117.727 C460.592,118.092 460.848,118.426 461.213,118.474 C462.358,118.626 463.526,118.65 464.683,118.544 C464.726,118.54 464.768,118.532 464.809,118.52" id="Fill-134" fill="#AEDCE9"></path>
            <path d="M268.683,121.585 L253.027,121.5 C253.027,121.5 254.22,116.739 253.773,113.081 C253.603,111.7 252.766,110.477 251.585,109.739 C236.241,100.145 240.003,89.187 240.003,89.187 C240.003,89.187 241.673,75.274 261.395,74.033 C282.423,72.71 281.063,91.387 281.063,91.387 C281.063,91.387 281.967,101.787 271.021,108.787 C269.455,109.788 268.461,111.478 268.225,113.322 C267.634,117.952 268.683,121.585 268.683,121.585" id="Fill-135" fill="#BDE3EE"></path>
            <path d="M253.027,121.462 L252.996921,127.07 C252.985,129.171 254.349,130.898 256.026,130.907 L265.559,130.959035 C267.237,130.968 268.619,129.256 268.63,127.155 L268.661,121.547 L253.027,121.462" id="Fill-136" fill="#32609D"></path>
            <polyline id="Fill-137" fill="#13374D" points="257.012 130.913 258.076 133.481 264.004 133.513 265.314 130.957 257.012 130.913"></polyline>
            <path d="M254.427,92.687 C256.206,91.799 257.637,92.645 258.44,93.445 C258.89,93.892 259.133,94.504 259.129049,95.139 L259.111,98.554 C257.118,98.715 255.194,98.201 253.991,96.403 C253.173,95.182 253.307,93.378 254.427,92.687 Z M263.687,95.96 C263.676,95.424 264.473,91.149 267.109,93.535 C267.384,93.783 267.544,94.16 267.493,94.527 C267.287,96.031 265.149,97.04 263.639,97.533 C263.633,97.006 263.631,96.477 263.687,95.96 Z M258.468,99.255 C258.668,99.256 258.891,99.243 259.107,99.235 L258.986,121.449 L260.056,121.455 L260.177,99.155 C260.939,99.074 261.737,98.938 262.537,98.744 C262.548,99.163 262.558,99.572 262.552,99.957 C262.518,102.406 262.484,104.856 262.45,107.306 C262.384,112.026 262.318,116.746 262.253,121.466 L263.322,121.472 C263.429,113.792 263.536,106.112 263.643,98.432 C264.997,98 266.254,97.398 267.109,96.59 C270.76,93.135 264.538,89.346 262.881,94.196 C262.508,95.288 262.487,96.602 262.515,97.873 C261.813,98.075 260.888,98.289 260.057,98.428 C260.057,98.428 260.086,96.377 260.068,95.061 C260.057,94.317 259.835,93.57 259.337,93.018 C256.584,89.968 250.719,92.135 253.075,96.58 C254.09,98.494 256.434,99.239 258.468,99.255 L258.468,99.255 Z" id="Fill-138" fill="#2A8AA4"></path>
            <path d="M281.442,70.323 C281.12,69.997 281.123,69.474 281.448,69.152 L289.395,61.29 C289.721,60.968 290.245,60.971 290.567,61.296 C290.889,61.621 290.886,62.145 290.56,62.467 L282.613,70.329 C282.288,70.651 281.764,70.648 281.442,70.323" id="Fill-139" fill="#E5F4F5"></path>
            <path d="M246.548,70.133 C246.874,69.811 246.876,69.287 246.555,68.962 L238.693,61.015 C238.372,60.689 237.848,60.686 237.522,61.008 C237.197,61.33 237.194,61.854 237.516,62.179 L245.377,70.127 C245.699,70.452 246.223,70.455 246.548,70.133" id="Fill-140" fill="#E5F4F5"></path>
            <path d="M261.509,67.3130182 C261.052,67.311 260.683,66.938 260.684992,66.481 L260.746,55.302 C260.749,54.844 261.121,54.476 261.579,54.4779919 C262.037,54.481 262.405,54.853 262.402,55.311 L262.342,66.49 C262.339,66.948 261.967,67.316 261.509,67.3130182" id="Fill-141" fill="#E5F4F5"></path>
        </g>
    </g>
</svg>